<?xml version="1.0" encoding="UTF-8"?>
<svg version="1.1" xmlns="http://www.w3.org/2000/svg" width="804" height="804">
<path d="M0 0 C72.6 0 145.2 0 220 0 C218.13182125 4.67044687 216.18692625 7.30807073 212.8125 10.8125 C211.8051278 11.88069836 210.79861541 12.94970824 209.79296875 14.01953125 C209.30747559 14.53338379 208.82198242 15.04723633 208.32177734 15.57666016 C206.69142079 17.33228977 205.1574678 19.15872257 203.625 21 C192.66455562 33.54102856 178.56157106 45.68168855 163.6015625 53.1328125 C161.80010099 54.00981841 161.80010099 54.00981841 160 56 C146.38515482 63.1791253 132.04559244 67.99507443 117 71 C115.91460937 71.23203125 114.82921875 71.4640625 113.7109375 71.703125 C95.4896805 75.06852867 76.25858478 74.07863752 57.8046875 74.02734375 C56.80440018 74.02472912 55.80411285 74.02211449 54.77351379 74.01942062 C45.33951426 73.99292618 35.905584 73.95386481 26.47167969 73.90405273 C21.26335262 73.87709287 16.05506751 73.86017511 10.8466835 73.84918404 C8.88773141 73.84304301 6.92878687 73.83312679 4.96987534 73.81910515 C-16.02215352 73.66986733 -36.64940794 74.95400722 -53.0625 89.875 C-60.50889835 97.83494306 -64.12075915 106.58338878 -64.25 117.375 C-64.27578125 118.66148437 -64.3015625 119.94796875 -64.328125 121.2734375 C-63.85373649 126.66113553 -62.08932979 129.83096315 -58.4375 133.75 C-50.73871874 139.61073613 -39.18559018 138.28925528 -30.05786133 138.27124023 C-28.57335121 138.27563595 -27.08884354 138.28094116 -25.6043396 138.28707886 C-22.42494516 138.29851649 -19.24561682 138.30403368 -16.06620216 138.30496025 C-11.02468034 138.30691487 -5.9832934 138.32504504 -0.94181824 138.34571838 C11.58139327 138.39472181 24.10464123 138.42572206 36.62792969 138.44702148 C46.36312924 138.46360464 56.0982121 138.48658664 65.83333379 138.53004223 C70.8302361 138.55164688 75.82691577 138.55989264 80.82386148 138.55764949 C83.95160464 138.55933329 87.07920616 138.57348507 90.20689774 138.59086227 C91.64060865 138.59639351 93.0743498 138.59701134 94.50806236 138.59192467 C118.55982652 138.51563739 141.01685915 145.94839234 158.78125 162.5859375 C176.38873826 181.74338072 183.97069845 203.73965524 183.13183594 229.62011719 C181.52724164 258.5860158 166.85842413 287.99516115 145.375 307.375 C143.92807501 308.5969712 142.46829588 309.80379234 141 311 C139.57880859 312.16015625 139.57880859 312.16015625 138.12890625 313.34375 C122.51127432 325.84614982 105.71049437 334.57924654 86.375 339.8125 C85.66053711 340.0074707 84.94607422 340.20244141 84.20996094 340.40332031 C68.66703697 344.33938011 53.17995028 344.27823007 37.25610352 344.22705078 C34.78101608 344.22648575 32.30592831 344.22680503 29.83084106 344.22793579 C24.53049244 344.22838888 19.23020513 344.22277535 13.92987251 344.21146011 C6.26676819 344.19511157 -1.39631241 344.18998761 -9.05943228 344.18748413 C-21.49642222 344.18312159 -33.93338572 344.16985188 -46.37036133 344.15087891 C-58.44197458 344.13248261 -70.51358061 344.11834452 -82.58520508 344.10986328 C-83.33100012 344.10933783 -84.07679515 344.10881239 -84.84519004 344.10827102 C-88.58713236 344.10566069 -92.32907474 344.10313333 -96.07101715 344.10064721 C-127.04736398 344.07995965 -158.02367795 344.04462361 -189 344 C-189.495 342.515 -189.495 342.515 -190 341 C-189.28457031 340.63132812 -188.56914062 340.26265625 -187.83203125 339.8828125 C-184.48756335 337.65931798 -182.18184607 334.96631405 -179.6875 331.875 C-178.72469426 330.71163014 -177.76114713 329.54887347 -176.796875 328.38671875 C-176.32572266 327.8148584 -175.85457031 327.24299805 -175.36914062 326.65380859 C-173.42351194 324.30365013 -171.44165273 321.98788699 -169.4375 319.6875 C-168.50744141 318.61048828 -168.50744141 318.61048828 -167.55859375 317.51171875 C-166 316 -166 316 -164 316 C-164 315.34 -164 314.68 -164 314 C-161.91219881 312.18595949 -159.8195459 310.48889703 -157.625 308.8125 C-156.98159668 308.31637207 -156.33819336 307.82024414 -155.67529297 307.30908203 C-153.79033372 305.86349187 -151.89710227 304.42960207 -150 303 C-149.1440625 302.35160156 -148.288125 301.70320313 -147.40625 301.03515625 C-140.02090695 295.66054872 -132.02118074 291.33627636 -124 287 C-123.00097656 286.45214844 -122.00195312 285.90429688 -120.97265625 285.33984375 C-108.88700645 278.98343607 -95.89850309 274.53990662 -82.6875 271.1875 C-81.92501953 270.992771 -81.16253906 270.79804199 -80.37695312 270.59741211 C-65.919235 267.11633939 -51.78359383 266.66962564 -36.99609375 266.5859375 C-34.86596487 266.56715487 -32.73584288 266.54757669 -30.60572815 266.5272522 C-25.01600433 266.47619212 -19.42625539 266.43650408 -13.83642578 266.39910889 C-9.35004817 266.36728661 -4.8637568 266.32765462 -0.37744713 266.28750229 C36.7583428 265.95548844 36.7583428 265.95548844 49.12451172 266.04785156 C49.7991682 266.05198122 50.47382467 266.05611088 51.16892529 266.06036568 C54.12203188 266.07889786 57.07423146 266.10658942 60.0269928 266.15658569 C76.33275385 266.29380659 91.849638 263.61893464 104 252 C106.30008964 249.48379456 108.205585 246.89615308 110 244 C110.41378906 243.34644531 110.82757813 242.69289063 111.25390625 242.01953125 C114.93556618 235.18216281 114.92605415 227.58363264 114 220 C112.79795573 216.6394731 112.79795573 216.6394731 111 214 C110.01 213.67 109.02 213.34 108 213 C108 212.34 108 211.68 108 211 C107.34 210.67 106.68 210.34 106 210 C106 209.34 106 208.68 106 208 C97.4590113 206.07358356 89.26098662 205.71171648 80.52685547 205.72875977 C79.10455531 205.72436206 77.68225772 205.71905614 76.25996399 205.71292114 C73.21755276 205.70149812 70.17521047 205.69596741 67.13277817 205.69503975 C62.30485599 205.69308155 57.47707399 205.67493178 52.64920044 205.65428162 C40.65608588 205.60532438 28.66293347 205.57429938 16.66973877 205.55297852 C7.34641671 205.53637797 -1.97678381 205.51334713 -11.30002487 205.46995777 C-15.30505905 205.45190196 -19.30992787 205.4395453 -23.31500626 205.44125557 C-55.30297939 205.45086489 -83.2807733 202.81944455 -107.625 179.75 C-116.20921014 170.95605348 -125 157.68549472 -125 145 C-125.66 144.67 -126.32 144.34 -127 144 C-129.50203025 106.38054124 -120.41901976 75.44934585 -95.45532227 46.85571289 C-71.38069961 19.98359218 -35.34953021 5.25209789 0 1 C0 0.67 0 0.34 0 0 Z " fill="#A76DF7" transform="translate(386,210)"/>
<path d="M0 0 C1.47943027 0.29032661 2.95852623 0.58235679 4.4375 0.875 C5.26121094 1.03742188 6.08492188 1.19984375 6.93359375 1.3671875 C8.56912512 1.70471117 10.20378839 2.05482145 11.81645107 2.48864651 C18.50510693 4.20583199 24.97218897 4.29952592 31.84985352 4.30297852 C33.10984161 4.31141785 34.36982971 4.31985718 35.66799927 4.32855225 C38.39502564 4.34673148 41.12198485 4.35883408 43.84906197 4.36609077 C48.18728452 4.37769082 52.52536136 4.40320553 56.86351013 4.43040466 C63.75133305 4.47197309 70.6391635 4.50440244 77.52705187 4.53287882 C89.79360003 4.58372672 102.06007972 4.64705681 114.32652611 4.71821922 C118.61172212 4.74268487 122.89690254 4.76217693 127.18213958 4.77774543 C139.8775865 4.82596375 152.56615157 4.92817053 165.25366211 5.40991211 C166.18629914 5.44245118 167.11893618 5.47499025 168.07983494 5.50851536 C191.11987986 6.50938295 215.48731474 13.06300829 231.8046875 30.24609375 C238.23263793 38.30962587 242.30434758 47.92492278 242.1875 58.25 C242.18105469 58.93022217 242.17460938 59.61044434 242.16796875 60.3112793 C242.06615413 67.3277382 241.65931496 74.32994372 241.21875 81.33203125 C241.08635934 83.55193899 241 85.77614802 241 88 C223.97723117 115.13273813 194.87196501 133.55833568 164.375 141.8125 C163.30330566 142.10495605 163.30330566 142.10495605 162.20996094 142.40332031 C146.66703697 146.33938011 131.17995028 146.27823007 115.25610352 146.22705078 C112.78101608 146.22648575 110.30592831 146.22680503 107.83084106 146.22793579 C102.53049244 146.22838888 97.23020513 146.22277535 91.92987251 146.21146011 C84.26676819 146.19511157 76.60368759 146.18998761 68.94056772 146.18748413 C56.50357778 146.18312159 44.06661428 146.16985188 31.62963867 146.15087891 C19.55802542 146.13248261 7.48641939 146.11834452 -4.58520508 146.10986328 C-5.33100012 146.10933783 -6.07679515 146.10881239 -6.84519004 146.10827102 C-10.58713236 146.10566069 -14.32907474 146.10313333 -18.07101715 146.10064721 C-49.04736398 146.07995965 -80.02367795 146.04462361 -111 146 C-111.33 145.01 -111.66 144.02 -112 143 C-111.28457031 142.63132812 -110.56914062 142.26265625 -109.83203125 141.8828125 C-106.48756335 139.65931798 -104.18184607 136.96631405 -101.6875 133.875 C-100.72469426 132.71163014 -99.76114713 131.54887347 -98.796875 130.38671875 C-98.32572266 129.8148584 -97.85457031 129.24299805 -97.36914062 128.65380859 C-95.42351194 126.30365013 -93.44165273 123.98788699 -91.4375 121.6875 C-90.81746094 120.96949219 -90.19742188 120.25148438 -89.55859375 119.51171875 C-88 118 -88 118 -86 118 C-86 117.34 -86 116.68 -86 116 C-83.91219881 114.18595949 -81.8195459 112.48889703 -79.625 110.8125 C-78.98159668 110.31637207 -78.33819336 109.82024414 -77.67529297 109.30908203 C-75.79033372 107.86349187 -73.89710227 106.42960207 -72 105 C-71.1440625 104.35160156 -70.288125 103.70320313 -69.40625 103.03515625 C-62.02090695 97.66054872 -54.02118074 93.33627636 -46 89 C-45.00097656 88.45214844 -44.00195312 87.90429688 -42.97265625 87.33984375 C-30.88700645 80.98343607 -17.89850309 76.53990662 -4.6875 73.1875 C-3.5437793 72.89540649 -3.5437793 72.89540649 -2.37695312 72.59741211 C12.080765 69.11633939 26.21640617 68.66962564 41.00390625 68.5859375 C43.13403513 68.56715487 45.26415712 68.54757669 47.39427185 68.5272522 C52.98399567 68.47619212 58.57374461 68.43650408 64.16357422 68.39910889 C68.64995183 68.36728661 73.1362432 68.32765462 77.62255287 68.28750229 C114.7583428 67.95548844 114.7583428 67.95548844 127.12451172 68.04785156 C127.7991682 68.05198122 128.47382467 68.05611088 129.16892529 68.06036568 C132.12203188 68.07889786 135.07423146 68.10658942 138.0269928 68.15658569 C154.33275385 68.29380659 169.849638 65.61893464 182 54 C184.30008964 51.48379456 186.205585 48.89615308 188 46 C188.41378906 45.34644531 188.82757813 44.69289063 189.25390625 44.01953125 C192.93556618 37.18216281 192.92605415 29.58363264 192 22 C190.79795573 18.6394731 190.79795573 18.6394731 189 16 C188.01 15.67 187.02 15.34 186 15 C186 14.34 186 13.68 186 13 C185.34 12.67 184.68 12.34 184 12 C184 11.34 184 10.68 184 10 C175.4590113 8.07358356 167.26098662 7.71171648 158.52685547 7.72875977 C157.10455531 7.72436206 155.68225772 7.71905614 154.25996399 7.71292114 C151.21755276 7.70149812 148.17521047 7.69596741 145.13277817 7.69503975 C140.30485599 7.69308155 135.47707399 7.67493178 130.64920044 7.65428162 C118.65608588 7.60532438 106.66293347 7.57429938 94.66973877 7.55297852 C85.34641671 7.53637797 76.02321619 7.51334713 66.69997513 7.46995777 C62.69494095 7.45190196 58.69007213 7.4395453 54.68499374 7.44125557 C16.90008848 7.45276105 16.90008848 7.45276105 0 1 C0 0.67 0 0.34 0 0 Z " fill="#6D5CE2" transform="translate(308,408)"/>
<path d="M0 0 C0.33 0 0.66 0 1 0 C0.96519531 1.45019531 0.96519531 1.45019531 0.9296875 2.9296875 C0.83506995 9.75566767 0.87871972 16.18659891 2.5625 22.8515625 C3.05660842 25.27798778 3.06932514 27.53029204 3 30 C3.66 30 4.32 30 5 30 C5.45439453 30.88751953 5.45439453 30.88751953 5.91796875 31.79296875 C12.09990349 43.45304874 24.37001159 54.39318064 37.171875 58.51171875 C38.69223642 58.92513278 40.21884383 59.31605579 41.75 59.6875 C42.58547363 59.89608643 43.42094727 60.10467285 44.28173828 60.31958008 C53.26392786 62.36731218 62.34855358 62.91472122 71.53027344 63.36791992 C72.67270508 63.42568604 73.81513672 63.48345215 74.9921875 63.54296875 C76.51368408 63.6052063 76.51368408 63.6052063 78.06591797 63.66870117 C81 64 81 64 83.74267578 64.95996094 C110.1007524 73.37589606 144.77574197 68.38460811 172.06396484 68.45629883 C177.81936992 68.47230691 183.57456783 68.50263405 189.3298645 68.54106331 C191.49201235 68.55256615 193.65419729 68.55864234 195.81637573 68.55874443 C221.16711312 68.56037838 247.01863897 71.41857049 267.1328125 88.51953125 C268.91668767 90.0663496 268.91668767 90.0663496 270.98046875 90.8515625 C273.89987465 92.51172756 275.28376874 94.82298428 277.1875 97.5625 C279.41352467 100.92743379 279.41352467 100.92743379 282 104 C282.33 103.34 282.66 102.68 283 102 C295.45382497 122.74471407 297.97699902 146.36335454 292.54345703 169.83496094 C290.03348367 179.83426184 286.63987875 189.34920362 281.875 198.5 C281.55055908 199.12922363 281.22611816 199.75844727 280.8918457 200.40673828 C279.06472232 203.72903369 277.66081138 205.76345927 274 207 C274.0721875 205.8140625 274.144375 204.628125 274.21875 203.40625 C274.47045382 199.12728501 274.68461219 194.8473238 274.87988281 190.56542969 C274.95522252 188.95634515 275.0369215 187.34753224 275.12792969 185.73925781 C275.79434163 173.45335564 273.78137944 162.51530902 265.6953125 152.82421875 C265.13585937 152.22222656 264.57640625 151.62023437 264 151 C263.39929688 150.34644531 262.79859375 149.69289063 262.1796875 149.01953125 C246.01398998 133.13043312 221.15923229 128.25592823 199.33837891 127.42675781 C197.78952216 127.3656098 197.78952216 127.3656098 196.20937538 127.30322647 C183.97676173 126.86589145 171.74282715 126.86324374 159.50385666 126.86190033 C155.21962618 126.86072952 150.935476 126.84768087 146.65127563 126.83233643 C145.91867094 126.82976357 145.18606625 126.82719072 144.43126142 126.8245399 C142.93659584 126.81927671 141.44193034 126.81399123 139.94726491 126.80868387 C130.01984073 126.77396668 120.09252966 126.74702459 110.16503906 126.74951172 C103.40164618 126.7511147 96.63854234 126.73475577 89.87524188 126.69880509 C86.32453024 126.68062183 82.77429969 126.67075556 79.2235527 126.68328094 C36.97480764 126.81739 36.97480764 126.81739 20 115 C20.33 114.34 20.66 113.68 21 113 C20.23816406 112.46632813 19.47632813 111.93265625 18.69140625 111.3828125 C8.57075927 104.07977385 0.59821209 96.32175729 -5 85 C-5.51820313 84.13761719 -5.51820313 84.13761719 -6.046875 83.2578125 C-14.09948512 69.32060267 -14.21241847 51.57581468 -13 36 C-12.67 35.01 -12.34 34.02 -12 33 C-11.69442816 31.46102911 -11.40437972 29.91894058 -11.125 28.375 C-10.14574923 23.40674244 -8.7561266 18.74476407 -7 14 C-6.67773438 13.12730469 -6.35546875 12.25460937 -6.0234375 11.35546875 C-4.40348003 7.13244985 -2.94256464 3.49429551 0 0 Z M48 60 C51 61 51 61 51 61 Z " fill="#9C76F9" transform="translate(274,287)"/>
<path d="M0 0 C-0.90670776 2.38816833 -0.90670776 2.38816833 -3 5 C-6.08691363 6.13361603 -9.23546525 6.43699182 -12.49267578 6.78930664 C-13.46560137 6.90675012 -14.43852695 7.02419359 -15.44093513 7.14519596 C-26.4232485 8.34755937 -37.40928915 8.40983165 -48.44561386 8.38012505 C-52.22628921 8.37082538 -56.00648809 8.38144898 -59.78713989 8.39674377 C-69.16945188 8.43135255 -78.55171352 8.43918605 -87.93408203 8.43664551 C-95.89689976 8.43476434 -103.85935135 8.44905213 -111.82211685 8.48512459 C-115.49967004 8.49575408 -119.17668328 8.48394099 -122.85421753 8.47129822 C-142.45723193 8.50219592 -161.85026476 10.43472136 -180.4375 17 C-181.5416626 17.37954834 -182.6458252 17.75909668 -183.78344727 18.15014648 C-200.47437927 24.08230134 -216.6183275 31.61199007 -231 42 C-233.82836556 43.81000529 -236.6752776 45.58705033 -239.52734375 47.359375 C-243.76796798 50.17305932 -247.47106876 53.3403676 -251 57 C-251.66 56.67 -252.32 56.34 -253 56 C-252.195625 55.236875 -251.39125 54.47375 -250.5625 53.6875 C-247.83200976 51.20569102 -247.83200976 51.20569102 -247 48 C-244.89027217 46.15728918 -242.78725817 44.44238676 -240.5625 42.75 C-239.9236084 42.25838379 -239.2847168 41.76676758 -238.62646484 41.26025391 C-236.75810527 39.83045876 -234.88094215 38.4131836 -233 37 C-231.71802734 36.02933594 -231.71802734 36.02933594 -230.41015625 35.0390625 C-223.02506192 29.66119893 -215.02260829 25.3370481 -207 21 C-206.00097656 20.45214844 -205.00195312 19.90429688 -203.97265625 19.33984375 C-191.88700645 12.98343607 -178.89850309 8.53990662 -165.6875 5.1875 C-164.92501953 4.992771 -164.16253906 4.79804199 -163.37695312 4.59741211 C-149.16700133 1.1759956 -135.27567614 0.67102135 -120.7421875 0.5859375 C-118.67041332 0.56713307 -116.59864604 0.54755364 -114.52688599 0.5272522 C-109.0760745 0.47615203 -103.62523653 0.43652778 -98.17431641 0.39910889 C-93.85503976 0.36754691 -89.5358589 0.32777567 -85.21665573 0.28753281 C-56.81091028 0.02347444 -28.40683286 -0.05230868 0 0 Z " fill="#A49FFD" transform="translate(469,476)"/>
<path d="M0 0 C12.66617122 -0.06978214 25.33229604 -0.12295386 37.99862099 -0.15543652 C43.88131163 -0.17103348 49.76386989 -0.19216184 55.64648438 -0.22631836 C61.33290263 -0.25912575 67.01919426 -0.2768978 72.70569992 -0.28463173 C74.86561448 -0.29013708 77.0255228 -0.30088671 79.18538284 -0.31719017 C101.99135141 -0.48235387 101.99135141 -0.48235387 113 3 C113.495 3.495 113.495 3.495 114 4 C115.01320313 3.94714844 116.02640625 3.89429688 117.0703125 3.83984375 C121.80979928 4.03300375 124.74892559 5.37696763 128.875 7.5625 C129.57681396 7.92456543 130.27862793 8.28663086 131.00170898 8.65966797 C136.49389631 11.56673625 141.3104787 14.9174731 146 19 C146.87978516 19.66708984 146.87978516 19.66708984 147.77734375 20.34765625 C153.9604709 25.15675515 161.02023577 32.63651396 162.7578125 40.375 C162.87769531 41.674375 162.87769531 41.674375 163 43 C160.53713232 40.64322508 158.41796384 38.11677998 156.3125 35.4375 C155.68988281 34.65246094 155.06726563 33.86742187 154.42578125 33.05859375 C153 31 153 31 153 29 C152.41734375 28.89816406 151.8346875 28.79632813 151.234375 28.69140625 C148.61040921 27.87944481 147.30912338 26.74541033 145.25 24.9375 C116.46061531 1.9627201 75.89844191 5.88061755 41.25024414 5.46777344 C37.03919014 5.41678518 32.82819239 5.36151038 28.6171875 5.30664062 C20.41150641 5.20032947 12.20577707 5.09862389 4 5 C4 4.67 4 4.34 4 4 C9.94 3.67 15.88 3.34 22 3 C22 2.67 22 2.34 22 2 C14.74 1.67 7.48 1.34 0 1 C0 0.67 0 0.34 0 0 Z " fill="#C4AEFD" transform="translate(394,350)"/>
<path d="M0 0 C-1.09062195 2.41845703 -1.09062195 2.41845703 -3 5 C-14.82112969 8.79254937 -29.28941775 7.23588241 -41.53253746 7.15032959 C-45.28236024 7.12442566 -49.03203871 7.1116757 -52.78193665 7.10205078 C-61.42267194 7.07744791 -70.06327777 7.03418669 -78.70392609 6.98959351 C-87.2617613 6.94562386 -95.81955731 6.91003406 -104.37748146 6.88812256 C-108.033466 6.87536043 -111.6892253 6.85034908 -115.34513855 6.82470703 C-129.02338584 6.76560382 -142.41450073 7.38766527 -156 9 C-155.67 8.01 -155.34 7.02 -155 6 C-152.93359375 5.26953125 -152.93359375 5.26953125 -150.4375 4.8125 C-148.2409375 4.4103125 -148.2409375 4.4103125 -146 4 C-149.3 4 -152.6 4 -156 4 C-156 3.67 -156 3.34 -156 3 C-144.22308277 0.84853887 -132.67603572 0.65580219 -120.7421875 0.5859375 C-118.67041332 0.56713307 -116.59864604 0.54755364 -114.52688599 0.5272522 C-109.0760745 0.47615203 -103.62523653 0.43652778 -98.17431641 0.39910889 C-93.85503976 0.36754691 -89.5358589 0.32777567 -85.21665573 0.28753281 C-56.81091028 0.02347444 -28.40683286 -0.05230868 0 0 Z " fill="#9A93F4" transform="translate(469,476)"/>
<path d="M0 0 C22.16703629 0.06067133 44.33395675 0.13826731 66.50086308 0.23571491 C76.79459162 0.2805774 87.08828631 0.32001384 97.38208008 0.34643555 C106.35978609 0.3694932 115.33738408 0.40297724 124.31500429 0.44870156 C129.06346899 0.4725295 133.81182741 0.49132633 138.56035042 0.49761391 C143.04113666 0.50371232 147.52165131 0.52388124 152.0023365 0.55427551 C153.6359874 0.56298023 155.2696739 0.56679427 156.90334702 0.56500816 C181.81958302 0.54638868 181.81958302 0.54638868 190 6 C188.35 6.33 186.7 6.66 185 7 C185 6.34 185 5.68 185 5 C174.16795817 3.07427032 163.75244888 2.73303271 152.7890625 2.8046875 C151.08271452 2.80842816 149.37636435 2.81127014 147.67001343 2.81326294 C143.22808666 2.82081666 138.78629543 2.84039178 134.34442139 2.8626709 C129.79213289 2.88330971 125.23982202 2.8923028 120.6875 2.90234375 C111.79160786 2.92364742 102.8958153 2.95768056 94 3 C94 3.99 94 4.98 94 6 C111.82 6.33 129.64 6.66 148 7 C148 7.33 148 7.66 148 8 C137.62720238 8.04690782 127.2544311 8.08215947 116.88154793 8.10362434 C112.06194363 8.11394056 107.2424133 8.12786889 102.42285156 8.15087891 C46.7182163 8.40945655 46.7182163 8.40945655 32 4 C29.86893541 3.73658986 27.72897084 3.53735972 25.5859375 3.40234375 C24.41289062 3.32306641 23.23984375 3.24378906 22.03125 3.16210938 C20.8246875 3.08798828 19.618125 3.01386719 18.375 2.9375 C15.96596231 2.78277943 13.55709778 2.62533268 11.1484375 2.46484375 C9.55781494 2.36610962 9.55781494 2.36610962 7.93505859 2.26538086 C5.22461698 2.02030932 2.65410016 1.59078689 0 1 C0 0.67 0 0.34 0 0 Z " fill="#B18FF3" transform="translate(322,348)"/>
<path d="M0 0 C0 3.40996718 -0.76721942 4.7275109 -2.375 7.6875 C-7.89496822 18.58670071 -9.03989611 32.0302209 -5.7421875 43.93359375 C-0.71955377 57.91766346 8.61736728 67.56471126 22 74 C27.24128424 76.25580295 32.5979518 78.16926736 38 80 C32.73475655 81.77962774 28.02852298 79.88142016 23 78 C19.77744709 76.26558534 16.90397162 74.22068418 14 72 C13.22527344 71.41605469 12.45054687 70.83210938 11.65234375 70.23046875 C9.41212133 68.51383755 7.20298097 66.76404116 5 65 C4.09507812 64.30003906 4.09507812 64.30003906 3.171875 63.5859375 C-1.84958501 59.61264633 -3.09473815 55.98796582 -5 50 C-5.66 50 -6.32 50 -7 50 C-7.31461197 48.6254817 -7.62656973 47.25035581 -7.9375 45.875 C-8.11152344 45.10929687 -8.28554688 44.34359375 -8.46484375 43.5546875 C-9.5955485 38.15701667 -10.11465002 33.15290253 -10.0625 27.625 C-10.05347656 26.37976563 -10.04445313 25.13453125 -10.03515625 23.8515625 C-10.02355469 22.91054688 -10.01195312 21.96953125 -10 21 C-18.30211562 37.20146289 -18.30211562 37.20146289 -21 55 C-21.33 55.99 -21.66 56.98 -22 58 C-23.18025007 73.65977251 -22.20680164 88.83490712 -15 103 C-14.71511719 103.65097656 -14.43023437 104.30195313 -14.13671875 104.97265625 C-8.6666768 117.0934981 1.26618172 125.62049994 12 133 C10.26171875 133.6796875 10.26171875 133.6796875 8 134 C-6.24029499 126.21276412 -17.20523847 110.38428458 -22.25 95.25 C-23 92 -23 92 -23 88 C-23.66 87.67 -24.32 87.34 -25 87 C-27.04158659 56.30357554 -22.67907578 26.82792488 -3 2 C-2.01 1.34 -1.02 0.68 0 0 Z " fill="#C9A7F2" transform="translate(284,267)"/>
<path d="M0 0 C0.99 0.4021875 0.99 0.4021875 2 0.8125 C-3.50929852 11.75536785 -22.5654741 18.95056427 -33.4375 23 C-48.53912726 27.74097094 -65.37910515 29.98806513 -81.1796875 29.92602539 C-82.16596634 29.92617142 -83.15224518 29.92631744 -84.16841125 29.9264679 C-87.4039638 29.92577542 -90.63945761 29.91801432 -93.875 29.91015625 C-96.12801075 29.90828971 -98.3810219 29.90686692 -100.6340332 29.90586853 C-106.54572686 29.90206197 -112.4573957 29.89224765 -118.36907959 29.88116455 C-124.40881006 29.87091034 -130.44854457 29.86636233 -136.48828125 29.86132812 C-148.3255317 29.85062364 -160.16276378 29.83356967 -172 29.8125 C-172 29.4825 -172 29.1525 -172 28.8125 C-164.87517946 28.63761212 -157.75019059 28.4716073 -150.625 28.3125 C-149.55055634 28.28849121 -148.47611267 28.26448242 -147.36911011 28.23974609 C-130.24209512 27.86556246 -113.12719447 27.72077318 -95.99658203 27.84960938 C-88.21493613 27.89742071 -80.47013302 27.82314337 -72.69921875 27.37890625 C-72.0140065 27.34019409 -71.32879425 27.30148193 -70.62281799 27.26159668 C-65.75995624 26.94814886 -61.05449604 26.25273242 -56.296875 25.21484375 C-53.82385692 24.78164501 -51.50566387 24.74586 -49 24.8125 C-49 24.1525 -49 23.4925 -49 22.8125 C-50.32 22.4825 -51.64 22.1525 -53 21.8125 C-52.33170166 21.58175781 -51.66340332 21.35101562 -50.97485352 21.11328125 C-27.74566576 13.320048 -27.74566576 13.320048 -6.25 1.75 C-3 -0.1875 -3 -0.1875 0 0 Z " fill="#7E81E7" transform="translate(518,523.1875)"/>
<path d="M0 0 C42.24 0 84.48 0 128 0 C128 0.33 128 0.66 128 1 C125.36 1.33 122.72 1.66 120 2 C120 2.33 120 2.66 120 3 C108.1851915 3.13155413 96.37037151 3.26202008 84.55553627 3.39115143 C79.06761723 3.45116518 73.5797026 3.51153367 68.09179688 3.57275391 C62.78144623 3.6319797 57.47108555 3.69022007 52.16071701 3.74781799 C50.14926147 3.76980021 48.13780958 3.79211913 46.12636185 3.81480408 C35.72024788 3.93193885 25.31627893 4.03823757 14.90940285 3.97272491 C8.36209169 3.94786127 1.89077852 4.40325791 -4.625 5 C-6.29175781 5.14308594 -6.29175781 5.14308594 -7.9921875 5.2890625 C-10.66213522 5.51923041 -13.33127356 5.75615039 -16 6 C-16 6.66 -16 7.32 -16 8 C-17.0725 8.0825 -18.145 8.165 -19.25 8.25 C-24.18826512 8.83200982 -28.62972111 10.51634601 -33.265625 12.2578125 C-36 13 -36 13 -40 12 C-37.36 11.34 -34.72 10.68 -32 10 C-32 9.34 -32 8.68 -32 8 C-21.38147615 5.06224578 -10.96024982 2.31837834 0 1 C0 0.67 0 0.34 0 0 Z " fill="#AA7DE4" transform="translate(386,210)"/>
<path d="M0 0 C-0.61875 0.0825 -1.2375 0.165 -1.875 0.25 C-4.18437567 0.81258459 -4.18437567 0.81258459 -5.25 3.0625 C-5.4975 3.701875 -5.745 4.34125 -6 5 C-6.66 5 -7.32 5 -8 5 C-8 5.66 -8 6.32 -8 7 C-9.28913487 7.67154933 -10.58140204 8.33708859 -11.875 9 C-12.59429687 9.37125 -13.31359375 9.7425 -14.0546875 10.125 C-16 11 -16 11 -18 11 C-18.33 11.99 -18.66 12.98 -19 14 C-20.87109375 15.18359375 -20.87109375 15.18359375 -23.4375 16.4375 C-31.35459614 20.56228631 -38.63225062 25.63802093 -46.00585938 30.65234375 C-47.78048956 31.85165308 -49.5690704 33.02565475 -51.36328125 34.1953125 C-54.26951765 36.18446986 -56.58636625 38.44438779 -59 41 C-59.66 40.67 -60.32 40.34 -61 40 C-60.195625 39.236875 -59.39125 38.47375 -58.5625 37.6875 C-55.83200976 35.20569102 -55.83200976 35.20569102 -55 32 C-52.89027217 30.15728918 -50.78725817 28.44238676 -48.5625 26.75 C-47.9236084 26.25838379 -47.2847168 25.76676758 -46.62646484 25.26025391 C-44.75810527 23.83045876 -42.88094215 22.4131836 -41 21 C-39.71802734 20.02933594 -39.71802734 20.02933594 -38.41015625 19.0390625 C-31.02697464 13.66259179 -23.02594381 9.32718671 -15 5 C-14.39172363 4.66983887 -13.78344727 4.33967773 -13.15673828 3.99951172 C-3.54139172 -1.18046391 -3.54139172 -1.18046391 0 0 Z " fill="#A67EEF" transform="translate(277,492)"/>
<path d="M0 0 C5.28523331 0.0104907 10.57047203 0.01485091 15.85571289 0.01983643 C26.10572621 0.0303539 36.35571688 0.04726753 46.60571289 0.06866455 C45.052196 4.44609765 43.41814442 6.35983162 39.60571289 9.06866455 C39.60571289 6.06866455 39.60571289 6.06866455 40.60571289 3.06866455 C-0.97428711 2.73866455 -42.55428711 2.40866455 -85.39428711 2.06866455 C-85.39428711 1.73866455 -85.39428711 1.40866455 -85.39428711 1.06866455 C-56.92445936 0.17789723 -28.48257323 -0.06285419 0 0 Z " fill="#9164D7" transform="translate(559.394287109375,209.93133544921875)"/>
<path d="M0 0 C0.66 0 1.32 0 2 0 C1.95875 1.0725 1.9175 2.145 1.875 3.25 C1.96771393 16.41537836 5.78354872 28.4863936 14.96875 38.1953125 C23.53057283 45.80216278 34.63495956 51.42198848 46 53 C45.71125 52.41734375 45.4225 51.8346875 45.125 51.234375 C41.99687444 44.32643105 41.53461128 38.52378429 42 31 C42.66 31 43.32 31 44 31 C43.979375 29.72125 43.95875 28.4425 43.9375 27.125 C43.875 23.25 43.875 23.25 45 21 C45.66 21 46.32 21 47 21 C47.495 19.515 47.495 19.515 48 18 C48.495 18.99 48.495 18.99 49 20 C48.525625 21.216875 48.05125 22.43375 47.5625 23.6875 C44.98460109 31.00540657 44.39517359 40.04205569 47.33203125 47.28515625 C48.79447694 49.66548354 49.8597149 51.10495333 52.0625 52.75 C55 55 55 55 57 57 C51.16224278 57.21597084 46.32903688 56.63269123 40.75 54.9375 C40.01128662 54.71416992 39.27257324 54.49083984 38.51147461 54.26074219 C24.1256999 49.67103219 11.2386967 40.47068724 4 27 C0.81639018 20.15649228 -0.13901059 13.62303827 -0.0625 6.125 C-0.05347656 4.97257812 -0.04445313 3.82015625 -0.03515625 2.6328125 C-0.02355469 1.76398438 -0.01195312 0.89515625 0 0 Z " fill="#753BDF" transform="translate(276,291)"/>
<path d="M0 0 C16.17415088 -0.49449633 33.95296155 7.31356824 46 18 C46.59941406 18.49628906 47.19882812 18.99257813 47.81640625 19.50390625 C55.19706205 26.11939687 60.39602866 36.66532389 61.3359375 46.5234375 C61.51478244 64.15754869 57.73717966 79.27270611 45.0625 92.3125 C42.20581114 95 42.20581114 95 41 95 C41 93.35 41 91.7 41 90 C42.32 90 43.64 90 45 90 C45.20625 89.319375 45.4125 88.63875 45.625 87.9375 C46.88379162 85.24826337 47.97757532 83.77945815 49.9375 81.625 C58.97801524 71.44067262 58.89267187 57.32313987 58.24267578 44.46533203 C57.39448874 35.84863914 52.72572731 28.30241927 47 22 C46.47277344 21.41863281 45.94554687 20.83726562 45.40234375 20.23828125 C37.27502209 12.28958205 24.17580773 5.98313779 13 4 C12.14792969 4.020625 11.29585938 4.04125 10.41796875 4.0625 C8 4 8 4 5 2 C3.34450469 1.61500109 1.6777567 1.27206865 0 1 C0 0.67 0 0.34 0 0 Z " fill="#38219B" transform="translate(489,416)"/>
<path d="M0 0 C0.66 0.99 1.32 1.98 2 3 C0.85660156 3.33773438 -0.28679687 3.67546875 -1.46484375 4.0234375 C-2.95585157 4.47355307 -4.44673041 4.92409603 -5.9375 5.375 C-6.69224609 5.59671875 -7.44699219 5.8184375 -8.22460938 6.046875 C-10.16847912 6.63962452 -12.08686452 7.31451172 -14 8 C-14.33 8.66 -14.66 9.32 -15 10 C-16.68310547 10.7902832 -16.68310547 10.7902832 -18.8671875 11.55078125 C-19.66600342 11.83493896 -20.46481934 12.11909668 -21.2878418 12.41186523 C-22.141604 12.70907471 -22.99536621 13.00628418 -23.875 13.3125 C-31.09874292 15.89148929 -38.10021966 18.63538801 -45 22 C-45 21.34 -45 20.68 -45 20 C-43.71086513 19.32845067 -42.41859796 18.66291141 -41.125 18 C-40.40570313 17.62875 -39.68640625 17.2575 -38.9453125 16.875 C-37 16 -37 16 -35 16 C-35 15.34 -35 14.68 -35 14 C-34.34 14 -33.68 14 -33 14 C-32.67 13.01 -32.34 12.02 -32 11 C-29.4375 9.8125 -29.4375 9.8125 -27 9 C-27 8.34 -27 7.68 -27 7 C-24.48045712 6.0381577 -21.95946363 5.08045759 -19.4375 4.125 C-18.73302734 3.85558594 -18.02855469 3.58617187 -17.30273438 3.30859375 C-3.7583323 -1.8095674 -3.7583323 -1.8095674 0 0 Z " fill="#AD94FB" transform="translate(304,483)"/>
<path d="M0 0 C0.33 0 0.66 0 1 0 C1 14.84276003 -2.55638743 22.12953678 -13 33 C-21.35830555 40.82388704 -21.35830555 40.82388704 -26.8125 41.1875 C-27.534375 41.125625 -28.25625 41.06375 -29 41 C-29 40.34 -29 39.68 -29 39 C-27.3828125 37.625 -27.3828125 37.625 -25.125 36 C-13.19756477 26.88122299 -2.45900103 15.36875644 0 0 Z " fill="#7775DE" transform="translate(548,481)"/>
<path d="M0 0 C0 3.40996718 -0.76721942 4.7275109 -2.375 7.6875 C-7.89496822 18.58670071 -9.03989611 32.0302209 -5.7421875 43.93359375 C-0.71955377 57.91766346 8.61736728 67.56471126 22 74 C27.24128424 76.25580295 32.5979518 78.16926736 38 80 C32.73475655 81.77962774 28.02852298 79.88142016 23 78 C19.77744709 76.26558534 16.90397162 74.22068418 14 72 C13.22527344 71.41605469 12.45054687 70.83210938 11.65234375 70.23046875 C9.41212133 68.51383755 7.20298097 66.76404116 5 65 C4.39671875 64.53335938 3.7934375 64.06671875 3.171875 63.5859375 C-1.84958501 59.61264633 -3.09473815 55.98796582 -5 50 C-5.66 50 -6.32 50 -7 50 C-9.28711033 40.0077704 -10.87394903 30.76035019 -9.4375 20.5 C-8.6908702 17.15600943 -8.6908702 17.15600943 -10 15 C-7.84536421 9.10310206 -5.35499962 3.56999975 0 0 Z " fill="#DCB6FD" transform="translate(284,267)"/>
<path d="M0 0 C2.57930898 0.00373677 5.15861939 0.0065806 7.7379303 0.00857544 C13.79360013 0.01538774 19.84918485 0.03109172 25.90482289 0.05127442 C32.8095029 0.07377793 39.71418679 0.08466285 46.61889446 0.09466529 C60.7993544 0.11546312 74.97975269 0.15054791 89.16015625 0.1953125 C89.16015625 0.5253125 89.16015625 0.8553125 89.16015625 1.1953125 C77.34534775 1.32686663 65.53052776 1.45733258 53.71569252 1.58646393 C48.22777348 1.64647768 42.73985885 1.70684617 37.25195312 1.76806641 C31.94160248 1.8272922 26.6312418 1.88553257 21.32087326 1.94313049 C19.30941772 1.96511271 17.29796583 1.98743163 15.2865181 2.01011658 C4.84844509 2.12761109 -5.58772292 2.22565301 -16.02657127 2.18726349 C-21.68657905 2.17176815 -27.31594981 2.35982442 -32.96484375 2.6953125 C-33.83753906 2.74300781 -34.71023438 2.79070312 -35.609375 2.83984375 C-37.68644235 2.95396833 -39.76318841 3.07392137 -41.83984375 3.1953125 C-41.83984375 2.8653125 -41.83984375 2.5353125 -41.83984375 2.1953125 C-27.95283646 -0.3628896 -14.07093015 -0.06024979 0 0 Z M-46.83984375 3.1953125 C-45.18984375 3.1953125 -43.53984375 3.1953125 -41.83984375 3.1953125 C-41.83984375 3.5253125 -41.83984375 3.8553125 -41.83984375 4.1953125 C-43.48984375 4.1953125 -45.13984375 4.1953125 -46.83984375 4.1953125 C-46.83984375 3.8653125 -46.83984375 3.5353125 -46.83984375 3.1953125 Z M-46.83984375 4.1953125 C-46.83984375 4.8553125 -46.83984375 5.5153125 -46.83984375 6.1953125 C-47.91234375 6.2778125 -48.98484375 6.3603125 -50.08984375 6.4453125 C-55.02810887 7.02732232 -59.46956486 8.71165851 -64.10546875 10.453125 C-66.83984375 11.1953125 -66.83984375 11.1953125 -70.83984375 10.1953125 C-68.19984375 9.5353125 -65.55984375 8.8753125 -62.83984375 8.1953125 C-62.83984375 7.5353125 -62.83984375 6.8753125 -62.83984375 6.1953125 C-57.35309179 4.32748204 -52.61791399 3.9594729 -46.83984375 4.1953125 Z " fill="#CC8DFE" transform="translate(416.83984375,211.8046875)"/>
<path d="M0 0 C12.95423032 1.57918236 26.12760097 13.93470979 33.84033203 23.61206055 C37.30525305 28.07852785 39.44904363 31.27853 40 37 C37.53713232 34.64322508 35.41796384 32.11677998 33.3125 29.4375 C32.68988281 28.65246094 32.06726563 27.86742187 31.42578125 27.05859375 C30 25 30 25 30 23 C29.42507813 22.90203125 28.85015625 22.8040625 28.2578125 22.703125 C25.54019989 21.85680966 24.04086392 20.58818709 21.875 18.75 C17.25018874 15.01783118 12.39630493 12.44467259 7 10 C7 8.35 7 6.7 7 5 C3.535 3.02 3.535 3.02 0 1 C0 0.67 0 0.34 0 0 Z " fill="#B09CF1" transform="translate(517,356)"/>
<path d="M0 0 C0 1.65 0 3.3 0 5 C-16.43707607 10.1259073 -32.50583329 10.27957616 -49.55859375 10.1953125 C-51.80159884 10.19157431 -54.04460559 10.18873116 -56.28761292 10.18673706 C-62.14169969 10.17916399 -67.99568448 10.15957107 -73.84973145 10.1373291 C-79.84316631 10.11673311 -85.83661794 10.10770616 -91.83007812 10.09765625 C-103.5534298 10.07631821 -115.27670636 10.04226026 -127 10 C-127 9.67 -127 9.34 -127 9 C-119.87517946 8.82511212 -112.75019059 8.6591073 -105.625 8.5 C-104.55055634 8.47599121 -103.47611267 8.45198242 -102.36911011 8.42724609 C-85.24209512 8.05306246 -68.12719447 7.90827318 -50.99658203 8.03710938 C-43.21493613 8.08492071 -35.47013302 8.01064337 -27.69921875 7.56640625 C-27.0140065 7.52769409 -26.32879425 7.48898193 -25.62281799 7.44909668 C-20.75995624 7.13564886 -16.05449604 6.44023242 -11.296875 5.40234375 C-8.82385692 4.96914501 -6.50566387 4.93336 -4 5 C-4 4.34 -4 3.68 -4 3 C-5.32 2.67 -6.64 2.34 -8 2 C-5.09399739 0.74335022 -3.20395416 0 0 0 Z " fill="#7D77F4" transform="translate(473,543)"/>
<path d="M0 0 C0.33 0.66 0.66 1.32 1 2 C1.99 2.33 2.98 2.66 4 3 C4.41924355 4.57216331 4.83443461 6.14547195 5.234375 7.72265625 C10.07670796 22.12612623 21.69813506 32.837736 34 41 C32.26171875 41.6796875 32.26171875 41.6796875 30 42 C19.24772101 36.12016866 10.94461031 25.42236873 5 15 C4.57589844 14.26394531 4.15179688 13.52789062 3.71484375 12.76953125 C1.40540278 8.49002953 0.40387546 4.84650549 0 0 Z " fill="#BB93EF" transform="translate(262,359)"/>
<path d="M0 0 C2.97769846 0.1384976 5.21826492 0.31118434 7.51171875 2.33203125 C11 6.44000716 11 6.44000716 11 9 C11.66 9.33 12.32 9.66 13 10 C13.6328125 12.328125 13.6328125 12.328125 14.125 15.25 C14.29257812 16.20390625 14.46015625 17.1578125 14.6328125 18.140625 C14.97444439 20.80099245 15.06841462 23.32205635 15 26 C14.01 26.33 13.02 26.66 12 27 C11.1184184 28.89880826 11.1184184 28.89880826 10.5625 31.1875 C9.28794737 35.43148909 7.63525243 38.45603983 5 42 C5 38.53030228 5.85706482 37.26204782 7.5 34.25 C10.73504761 27.34795241 11.01048112 20.5028223 10 13 C8.79115556 9.6468965 8.79115556 9.6468965 7 7 C6.01 6.67 5.02 6.34 4 6 C4 5.34 4 4.68 4 4 C3.34 3.67 2.68 3.34 2 3 C2 2.34 2 1.68 2 1 C1.34 0.67 0.68 0.34 0 0 Z " fill="#6048C4" transform="translate(490,417)"/>
<path d="M0 0 C0.33 0.66 0.66 1.32 1 2 C0.525625 3.216875 0.05125 4.43375 -0.4375 5.6875 C-3.01539891 13.00540657 -3.60482641 22.04205569 -0.66796875 29.28515625 C0.79447694 31.66548354 1.8597149 33.10495333 4.0625 34.75 C7 37 7 37 9 39 C3.04296875 39.390625 3.04296875 39.390625 1 39 C-4.30115507 33.34203641 -6.25895119 25.94770587 -6.25 18.375 C-6.18678879 16.5825106 -6.11073292 14.79018214 -6 13 C-5.34 13 -4.68 13 -4 13 C-4.020625 11.72125 -4.04125 10.4425 -4.0625 9.125 C-4.125 5.25 -4.125 5.25 -3 3 C-2.34 3 -1.68 3 -1 3 C-0.67 2.01 -0.34 1.02 0 0 Z " fill="#9159E8" transform="translate(324,309)"/>
<path d="M0 0 C-1.55351689 4.3774331 -3.18756847 6.29116707 -7 9 C-7 6 -7 6 -6 3 C-25.305 2.505 -25.305 2.505 -45 2 C-45 1.67 -45 1.34 -45 1 C-30.00690825 -0.19944734 -15.03249018 -0.10369435 0 0 Z " fill="#8258C9" transform="translate(606,210)"/>
<path d="M0 0 C0 3 0 3 -1.58203125 4.6484375 C-14.95475113 15 -14.95475113 15 -22 15 C-21.67 14.01 -21.34 13.02 -21 12 C-22.32 11.34 -23.64 10.68 -25 10 C-24.154375 9.76925781 -23.30875 9.53851563 -22.4375 9.30078125 C-16.29097296 7.53365472 -10.90094856 5.80402313 -5.68359375 2.05078125 C-3.81341847 0.88354888 -2.15105878 0.42832899 0 0 Z " fill="#7F71E3" transform="translate(489,465)"/>
<path d="M0 0 C0.33 0 0.66 0 1 0 C1 15.40875912 1 15.40875912 -2.75 20.5 C-3.44609375 21.4590625 -4.1421875 22.418125 -4.859375 23.40625 C-6.77374517 25.72585182 -8.51293514 27.34195676 -11 29 C-9.79618552 26.50638429 -8.54571278 24.31856917 -7 22 C-7.66 21.34 -8.32 20.68 -9 20 C-8.51789062 19.2265625 -8.03578125 18.453125 -7.5390625 17.65625 C-3.98976122 11.80352462 -1.17117885 6.76681114 0 0 Z " fill="#756FDD" transform="translate(548,481)"/>
<path d="M0 0 C0 4.08511657 -1.78268569 6.60159042 -3.7109375 10.13671875 C-6.78254096 16.95940158 -7.35312215 23.62531332 -7.625 31 C-7.66367187 31.87011719 -7.70234375 32.74023438 -7.7421875 33.63671875 C-7.83540887 35.75750486 -7.91874136 37.87872185 -8 40 C-8.33 40 -8.66 40 -9 40 C-10.6895364 33.66423851 -10.34090804 26.941182 -9.4375 20.5 C-8.6908702 17.15600943 -8.6908702 17.15600943 -10 15 C-7.84536421 9.10310206 -5.35499962 3.56999975 0 0 Z " fill="#E0C2FE" transform="translate(284,267)"/>
<path d="M0 0 C3.0127831 3.40014093 4.05545211 6.99580471 5.125 11.3125 C5.45757813 12.58738281 5.79015625 13.86226563 6.1328125 15.17578125 C8.9938181 27.7925582 8.86672625 40.72795867 6.625 53.4375 C6.49899414 54.15276855 6.37298828 54.86803711 6.24316406 55.60498047 C5.5890202 58.97276101 4.92905689 61.10641467 3 64 C3.12375 62.989375 3.2475 61.97875 3.375 60.9375 C3.46394531 60.20789063 3.55289063 59.47828125 3.64453125 58.7265625 C3.91177374 56.6767245 4.20530033 54.63028633 4.51171875 52.5859375 C6.54831993 38.6330528 5.99302917 25.86222964 4 12 C3.34 12 2.68 12 2 12 C1.66269158 10.56342755 1.33030409 9.12569907 1 7.6875 C0.814375 6.88699219 0.62875 6.08648437 0.4375 5.26171875 C0 3 0 3 0 0 Z " fill="#786ACD" transform="translate(561,398)"/>
<path d="M0 0 C2 3 2 3 2 7 C1.41734375 7.56203125 0.8346875 8.1240625 0.234375 8.703125 C-2.91330904 11.93885615 -4.1401235 15.58366725 -5.75 19.75 C-6.06582031 20.54277344 -6.38164062 21.33554687 -6.70703125 22.15234375 C-7.48057437 24.09792189 -8.24155202 26.04848779 -9 28 C-9.66 28 -10.32 28 -11 28 C-11.33 28.99 -11.66 29.98 -12 31 C-11.44225125 25.34814599 -9.90940447 20.70773416 -7.6875 15.5 C-7.39166016 14.77941406 -7.09582031 14.05882812 -6.79101562 13.31640625 C-4.84064892 8.65743092 -2.58583452 4.33826543 0 0 Z " fill="#C7A3F2" transform="translate(274,280)"/>
<path d="M0 0 C0.66 0.33 1.32 0.66 2 1 C1.119514 4.99343006 0.45381852 6.65762395 -2.86328125 9.16015625 C-4.00152344 9.78792969 -5.13976562 10.41570313 -6.3125 11.0625 C-9.93639896 13.08312325 -12.79638537 14.79522019 -15.73046875 17.74609375 C-18 20 -18 20 -21 20 C-20.195625 19.236875 -19.39125 18.47375 -18.5625 17.6875 C-15.83200976 15.20569102 -15.83200976 15.20569102 -15 12 C-13.6171875 10.66552734 -13.6171875 10.66552734 -11.875 9.3359375 C-11.25109375 8.85382812 -10.6271875 8.37171875 -9.984375 7.875 C-9.32953125 7.38 -8.6746875 6.885 -8 6.375 C-6.70806586 5.3831608 -5.41638595 4.39099034 -4.125 3.3984375 C-3.09375 2.60695313 -2.0625 1.81546875 -1 1 C-0.67 0.67 -0.34 0.34 0 0 Z " fill="#A072ED" transform="translate(237,512)"/>
<path d="M0 0 C-0.99 0.99 -1.98 1.98 -3 3 C-1.35 2.67 0.3 2.34 2 2 C0.37670874 5.24658252 -3.11351163 5.66743076 -6.375 6.8125 C-13.07431135 9.23536754 -19.57012019 11.92128636 -26 15 C-26 14.34 -26 13.68 -26 13 C-24.71086513 12.32845067 -23.41859796 11.66291141 -22.125 11 C-21.40570313 10.62875 -20.68640625 10.2575 -19.9453125 9.875 C-18 9 -18 9 -16 9 C-16 8.34 -16 7.68 -16 7 C-15.34 7 -14.68 7 -14 7 C-13.67 6.01 -13.34 5.02 -13 4 C-4.89189189 -1.63063063 -4.89189189 -1.63063063 0 0 Z " fill="#B592FE" transform="translate(285,490)"/>
<path d="M0 0 C-1.1196986 1.00593243 -2.2459412 2.0045849 -3.375 3 C-4.31472656 3.8353125 -4.31472656 3.8353125 -5.2734375 4.6875 C-7 6 -7 6 -9 6 C-9 6.66 -9 7.32 -9 8 C-7.6078125 7.505 -7.6078125 7.505 -6.1875 7 C-3 6 -3 6 0 6 C-2.17125302 8.27403422 -4.31363241 10.34769244 -7 12 C-7.928125 11.67 -8.85625 11.34 -9.8125 11 C-12.94041327 9.6177126 -12.94041327 9.6177126 -15.4921875 11.21484375 C-17.26164658 12.3457589 -19.00922154 13.5118215 -20.73046875 14.71484375 C-21.47941406 15.13894531 -22.22835938 15.56304688 -23 16 C-23.99 15.67 -24.98 15.34 -26 15 C-25.4652002 14.68772461 -24.93040039 14.37544922 -24.37939453 14.05371094 C-21.95479704 12.62983299 -19.53994982 11.19017493 -17.125 9.75 C-16.28324219 9.25886719 -15.44148437 8.76773438 -14.57421875 8.26171875 C-13.76855469 7.77832031 -12.96289062 7.29492188 -12.1328125 6.796875 C-11.38918457 6.35698242 -10.64555664 5.91708984 -9.87939453 5.46386719 C-7.7697317 3.82064319 -7.10583595 2.3935897 -6 0 C-3.40292416 -1.05506206 -2.5386068 -1.2693034 0 0 Z " fill="#5B55CB" transform="translate(528,514)"/>
<path d="M0 0 C10.38437692 -0.09776087 20.66192051 -0.1555538 31 1 C31 1.66 31 2.32 31 3 C20.5930817 4.38050957 9.95745712 4.69073675 0 1 C0 0.67 0 0.34 0 0 Z " fill="#AF85FC" transform="translate(355,351)"/>
<path d="M0 0 C-0.5259375 1.175625 -0.5259375 1.175625 -1.0625 2.375 C-1.371875 3.24125 -1.68125 4.1075 -2 5 C-1.67 5.66 -1.34 6.32 -1 7 C-2.72744016 7.65043719 -4.4570369 8.29514844 -6.1875 8.9375 C-7.15042969 9.29714844 -8.11335938 9.65679688 -9.10546875 10.02734375 C-11.7368278 10.91156562 -14.26894908 11.52568586 -17 12 C-15.68 11.34 -14.36 10.68 -13 10 C-13.33 8.68 -13.66 7.36 -14 6 C-12.04414675 4.99515796 -10.08523763 3.99626195 -8.125 3 C-7.03445313 2.443125 -5.94390625 1.88625 -4.8203125 1.3125 C-2 0 -2 0 0 0 Z " fill="#8186F0" transform="translate(503,531)"/>
<path d="M0 0 C0 0.33 0 0.66 0 1 C-0.90363281 1.10957031 -1.80726563 1.21914063 -2.73828125 1.33203125 C-3.91777344 1.49058594 -5.09726562 1.64914062 -6.3125 1.8125 C-8.07013672 2.03873047 -8.07013672 2.03873047 -9.86328125 2.26953125 C-13.12399177 3.0288748 -13.88568586 3.58546602 -16 6 C-20.69682975 7.13071827 -23.67899104 7.22597431 -28 5 C-27.01 4.67 -26.02 4.34 -25 4 C-25 3.34 -25 2.68 -25 2 C-8.29157175 -0.29612756 -8.29157175 -0.29612756 0 0 Z " fill="#AF99F8" transform="translate(329,479)"/>
<path d="M0 0 C0.66 0.33 1.32 0.66 2 1 C0.31053061 11.77036735 -6.49434144 22.22012724 -15 29 C-15.33 29 -15.66 29 -16 29 C-16 27.35 -16 25.7 -16 24 C-14.68 24 -13.36 24 -12 24 C-11.79375 23.319375 -11.5875 22.63875 -11.375 21.9375 C-10.11620838 19.24826337 -9.02242468 17.77945815 -7.0625 15.625 C-2.93702297 10.99641601 -0.93564586 6.17526269 0 0 Z " fill="#5144BA" transform="translate(546,482)"/>
<path d="M0 0 C1.32 0.33 2.64 0.66 4 1 C-3.18525666 7.86086584 -10.74056555 13.52391728 -19 19 C-19.66 18.67 -20.32 18.34 -21 18 C-20.071875 17.443125 -19.14375 16.88625 -18.1875 16.3125 C-14.94437205 14.27745929 -14.94437205 14.27745929 -13.5 11.5 C-11.07632981 7.46054969 -7.52286317 5.57530387 -3.1875 3.9375 C-2.465625 3.628125 -1.74375 3.31875 -1 3 C-0.67 2.01 -0.34 1.02 0 0 Z " fill="#8556D0" transform="translate(574,241)"/>
<path d="M0 0 C0.66 0.33 1.32 0.66 2 1 C-2.49839182 7.18528875 -7.78299167 12.34110219 -15 15 C-17.10576903 16.56801894 -19.02961055 18.2587256 -21 20 C-19.41857538 15.92663356 -16.49698894 13.40509894 -13.3125 10.5625 C-12.77592773 10.07676514 -12.23935547 9.59103027 -11.68652344 9.09057617 C-7.96927093 5.76375841 -4.17002278 2.7484241 0 0 Z " fill="#A46FE5" transform="translate(312,238)"/>
<path d="M0 0 C0.66 0.33 1.32 0.66 2 1 C1.43603516 1.30703857 0.87207031 1.61407715 0.29101562 1.93041992 C-2.30737327 3.34692492 -4.90369054 4.76718745 -7.5 6.1875 C-8.386875 6.67025391 -9.27375 7.15300781 -10.1875 7.65039062 C-17.69528692 11.76311213 -24.90701693 16.21223643 -32 21 C-32.66 20.67 -33.32 20.34 -34 20 C-23.76149959 12.45087527 -11.94951162 4.51810047 0 0 Z " fill="#7346DF" transform="translate(268,500)"/>
<path d="M0 0 C0.66 0 1.32 0 2 0 C1.95875 1.0725 1.9175 2.145 1.875 3.25 C1.90718992 12.32755629 3.60074985 20.08134974 8 28 C8 28.66 8 29.32 8 30 C5 29 5 29 3.8671875 26.92578125 C3.53976562 26.06339844 3.21234375 25.20101563 2.875 24.3125 C2.54242188 23.46300781 2.20984375 22.61351562 1.8671875 21.73828125 C0.21048067 16.50696825 -0.11828236 11.59167165 -0.0625 6.125 C-0.05347656 4.97257812 -0.04445313 3.82015625 -0.03515625 2.6328125 C-0.02355469 1.76398438 -0.01195312 0.89515625 0 0 Z " fill="#7C3EE5" transform="translate(276,291)"/>
<path d="M0 0 C0.33 0.66 0.66 1.32 1 2 C1.99 2.33 2.98 2.66 4 3 C4.44268543 4.6004781 4.87560767 6.20432364 5.2578125 7.8203125 C6.51294328 11.50643343 8.73452512 14.61977729 10.85546875 17.86328125 C11.42201172 18.92095703 11.42201172 18.92095703 12 20 C11.67 20.66 11.34 21.32 11 22 C5.26655441 17.08561806 1.27760393 10.42895962 0.1875 2.875 C0.125625 1.92625 0.06375 0.9775 0 0 Z " fill="#BF9CEE" transform="translate(262,359)"/>
<path d="M0 0 C0 1.65 0 3.3 0 5 C-9.50812651 7.73380129 -18.09907031 9.17929249 -28 9 C-28 8.67 -28 8.34 -28 8 C-24.93852743 7.49357075 -21.87567701 6.99600678 -18.8125 6.5 C-17.94818359 6.35691406 -17.08386719 6.21382812 -16.19335938 6.06640625 C-12.09473423 5.40685738 -8.16773976 4.79290734 -4 5 C-4 4.34 -4 3.68 -4 3 C-5.32 2.67 -6.64 2.34 -8 2 C-5.09399739 0.74335022 -3.20395416 0 0 0 Z " fill="#8A90F6" transform="translate(473,543)"/>
<path d="M0 0 C3.48609351 0.75239428 6.63954857 2.02972933 9.9375 3.375 C16.50749895 5.94489755 23.09399651 7.60975707 30 9 C30 9.33 30 9.66 30 10 C20.89216166 9.57139584 8.78030369 8.0929041 1 3 C0.67 2.01 0.34 1.02 0 0 Z " fill="#BA82FC" transform="translate(298,402)"/>
<path d="M0 0 C0.66 0.33 1.32 0.66 2 1 C0.9171875 2.2684375 0.9171875 2.2684375 -0.1875 3.5625 C-2.16570409 5.91723726 -3.95104194 8.33749729 -5.6875 10.875 C-6.8321875 12.421875 -6.8321875 12.421875 -8 14 C-8.66 14 -9.32 14 -10 14 C-10.226875 14.598125 -10.45375 15.19625 -10.6875 15.8125 C-12.33811133 18.56351888 -14.1972081 19.52484637 -17 21 C-15.47147075 17.46324349 -13.3583611 15.00435254 -10.75 12.1875 C-7.08291494 8.18865927 -3.50851407 4.13824736 0 0 Z " fill="#845FCC" transform="translate(220,526)"/>
<path d="M0 0 C4.6182583 0.54792895 7.98149647 2.58964488 11.8125 5.0625 C12.40998047 5.43955078 13.00746094 5.81660156 13.62304688 6.20507812 C15.08636577 7.12989566 16.54379523 8.06402065 18 9 C15.59454362 10.20272819 14.05003047 10.10071472 11.375 10.0625 C10.14910156 10.04896484 10.14910156 10.04896484 8.8984375 10.03515625 C7.95871094 10.01775391 7.95871094 10.01775391 7 10 C7 8.35 7 6.7 7 5 C3.535 3.02 3.535 3.02 0 1 C0 0.67 0 0.34 0 0 Z " fill="#B098ED" transform="translate(517,356)"/>
<path d="M0 0 C0.33 0.66 0.66 1.32 1 2 C0.525625 3.155 0.05125 4.31 -0.4375 5.5 C-3.1420473 12.96209186 -2.22757708 21.1865201 -2 29 C-5.09692573 25.90307427 -5.15734677 23.12879868 -5.1875 18.9375 C-5.15083467 13.43770102 -4.29543126 8.33208759 -3 3 C-2.34 3 -1.68 3 -1 3 C-0.67 2.01 -0.34 1.02 0 0 Z " fill="#8B5BD7" transform="translate(324,309)"/>
<path d="M0 0 C0.81082031 0.38671875 1.62164062 0.7734375 2.45703125 1.171875 C9.52901346 4.4979295 16.60202889 7.47964912 24 10 C18.73981499 11.77791801 14.02098495 9.88961799 9 8 C5.78948655 6.26558469 2.73660746 4.42578291 0 2 C0 1.34 0 0.68 0 0 Z " fill="#CF9BFE" transform="translate(298,337)"/>
<path d="M0 0 C1.35908042 3.06382291 0.89623023 4.32653831 -0.14453125 7.6015625 C-0.68897456 8.94743695 -1.24539124 10.28851797 -1.8125 11.625 C-2.08642578 12.305625 -2.36035156 12.98625 -2.64257812 13.6875 C-3.83023598 16.56977758 -4.77521867 18.77521867 -7 21 C-6.23915412 16.81134319 -5.12177302 12.77515205 -3.9375 8.6875 C-3.57527344 7.43324219 -3.21304688 6.17898438 -2.83984375 4.88671875 C-2.42412109 3.45779297 -2.42412109 3.45779297 -2 2 C-1.34 2 -0.68 2 0 2 C0 1.34 0 0.68 0 0 Z " fill="#7064CC" transform="translate(563,462)"/>
<path d="M0 0 C6.02536998 -0.602537 6.02536998 -0.602537 8.80078125 1.11328125 C10.25599455 2.34621853 11.63479157 3.66808933 13 5 C12.67 5.66 12.34 6.32 12 7 C8.80862651 6.36747553 6.48762632 5.24396936 3.75 3.5 C3.04359375 3.0565625 2.3371875 2.613125 1.609375 2.15625 C1.07828125 1.7746875 0.5471875 1.393125 0 1 C0 0.67 0 0.34 0 0 Z " fill="#C5B3FD" transform="translate(526,365)"/>
<path d="M0 0 C5.4042243 -0.2248832 9.81275243 0.5113589 14.9375 2 C15.96327148 2.28617187 15.96327148 2.28617187 17.00976562 2.578125 C18.67544526 3.04404937 20.33806675 3.52088411 22 4 C22 4.66 22 5.32 22 6 C21.40832031 5.855625 20.81664062 5.71125 20.20703125 5.5625 C15.21883973 4.37926492 15.21883973 4.37926492 10.125 4 C8 4 8 4 5 2 C3.34450469 1.61500109 1.6777567 1.27206865 0 1 C0 0.67 0 0.34 0 0 Z " fill="#3E26A3" transform="translate(489,416)"/>
<path d="M0 0 C0 3.48961209 -0.90379374 5.11480295 -2.5 8.1875 C-2.9640625 9.08855469 -3.428125 9.98960937 -3.90625 10.91796875 C-4.2671875 11.60503906 -4.628125 12.29210937 -5 13 C-6.32 13 -7.64 13 -9 13 C-7.11399805 7.65632782 -4.7782344 3.1854896 0 0 Z " fill="#C7A1EF" transform="translate(284,267)"/>
<path d="M0 0 C-0.61875 0.0825 -1.2375 0.165 -1.875 0.25 C-4.18437567 0.81258459 -4.18437567 0.81258459 -5.25 3.0625 C-5.4975 3.701875 -5.745 4.34125 -6 5 C-6.66 5 -7.32 5 -8 5 C-8 5.66 -8 6.32 -8 7 C-10.31 7.66 -12.62 8.32 -15 9 C-14.67 8.34 -14.34 7.68 -14 7 C-13.34 7 -12.68 7 -12 7 C-11.67 6.01 -11.34 5.02 -11 4 C-10.34 4 -9.68 4 -9 4 C-9 3.34 -9 2.68 -9 2 C-3.375 -1.125 -3.375 -1.125 0 0 Z " fill="#A785F0" transform="translate(277,492)"/>
<path d="M0 0 C0.72159424 1.64363134 1.39351421 3.31050386 2 5 C-2.455 5.495 -2.455 5.495 -7 6 C-6.34 4.68 -5.68 3.36 -5 2 C-5.66 2 -6.32 2 -7 2 C-7.33 2.66 -7.66 3.32 -8 4 C-8.66 3.34 -9.32 2.68 -10 2 C-8.71211992 1.46987262 -7.41953322 0.9511671 -6.125 0.4375 C-5.40570313 0.14746094 -4.68640625 -0.14257812 -3.9453125 -0.44140625 C-2 -1 -2 -1 0 0 Z " fill="#A387F0" transform="translate(287,488)"/>
<path d="M0 0 C0 0.99 0 1.98 0 3 C-1.96875 4.82421875 -1.96875 4.82421875 -4.5 6.6875 C-5.3353125 7.31011719 -6.170625 7.93273437 -7.03125 8.57421875 C-7.6809375 9.04472656 -8.330625 9.51523437 -9 10 C-10.32 9.34 -11.64 8.68 -13 8 C-12.31292969 7.59007812 -11.62585938 7.18015625 -10.91796875 6.7578125 C-10.01691406 6.21898437 -9.11585938 5.68015625 -8.1875 5.125 C-7.29417969 4.59132813 -6.40085937 4.05765625 -5.48046875 3.5078125 C-3.62705276 2.38116908 -1.80470083 1.20313389 0 0 Z " fill="#8E7AF8" transform="translate(489,465)"/>
<path d="M0 0 C-0.99 0 -1.98 0 -3 0 C-3 0.66 -3 1.32 -3 2 C-4.91197039 2.70045456 -6.82980435 3.384919 -8.75 4.0625 C-9.81734375 4.44535156 -10.8846875 4.82820312 -11.984375 5.22265625 C-15 6 -15 6 -19 5 C-16.36 4.34 -13.72 3.68 -11 3 C-11 2.34 -11 1.68 -11 1 C-3.57142857 -1.42857143 -3.57142857 -1.42857143 0 0 Z " fill="#BE84F1" transform="translate(365,217)"/>
<path d="M0 0 C0.33 0.99 0.66 1.98 1 3 C-0.21484375 4.82421875 -0.21484375 4.82421875 -1.9375 6.6875 C-2.50339844 7.31011719 -3.06929688 7.93273437 -3.65234375 8.57421875 C-4.09707031 9.04472656 -4.54179687 9.51523437 -5 10 C-6.32 9.34 -7.64 8.68 -9 8 C-6.03 5.36 -3.06 2.72 0 0 Z " fill="#7560DD" transform="translate(496,457)"/>
<path d="M0 0 C4.29 0 8.58 0 13 0 C11.92643531 4.29425875 11.4915227 4.74740471 8 7 C8 4 8 4 9 1 C6.03 1 3.06 1 0 1 C0 0.67 0 0.34 0 0 Z " fill="#915BE2" transform="translate(591,212)"/>
<path d="M0 0 C0.66 0.33 1.32 0.66 2 1 C-1.465 3.97 -1.465 3.97 -5 7 C-9 5 -9 5 -10 3 C-7 2 -7 2 -4.4375 2.0625 C-1.81610691 2.27527322 -1.81610691 2.27527322 0 0 Z " fill="#6F6ECB" transform="translate(526,519)"/>
<path d="M0 0 C0.33 0.99 0.66 1.98 1 3 C-2.465 4.485 -2.465 4.485 -6 6 C-6.66 5.34 -7.32 4.68 -8 4 C-4.5 0 -4.5 0 0 0 Z " fill="#B188FB" transform="translate(257,503)"/>
<path d="M0 0 C2.37948772 0.17625835 3.70225849 0.69719773 5.37890625 2.40234375 C6.62115486 3.90649092 7.81376056 5.45129851 9 7 C8.67 7.66 8.34 8.32 8 9 C4.48536988 7.10019993 2.10449322 5.43364683 0 2 C0 1.34 0 0.68 0 0 Z " fill="#A893EA" transform="translate(542,373)"/>
<path d="M0 0 C1.44856764 4.34570291 0.42444707 7.72665878 -1 12 C-1.66 12 -2.32 12 -3 12 C-3.33 12.99 -3.66 13.98 -4 15 C-3.43179252 9.54520815 -2.05362055 5.08940744 0 0 Z " fill="#BA98E7" transform="translate(266,296)"/>
<path d="M0 0 C-0.99 0 -1.98 0 -3 0 C-3 0.66 -3 1.32 -3 2 C-7.02040985 2.69584017 -10.08263419 3.1700097 -14 2 C-12.42085985 1.46658816 -10.83645613 0.94874237 -9.25 0.4375 C-8.36828125 0.14746094 -7.4865625 -0.14257812 -6.578125 -0.44140625 C-3.92165684 -1.01697435 -2.52968894 -0.89248371 0 0 Z " fill="#9F84E6" transform="translate(304,483)"/>
<path d="M0 0 C0.66 0 1.32 0 2 0 C1.979375 1.19625 1.95875 2.3925 1.9375 3.625 C1.93117429 7.18004869 2.30111125 10.50555624 3 14 C2.01 13.67 1.02 13.34 0 13 C0 8.71 0 4.42 0 0 Z " fill="#8847ED" transform="translate(276,291)"/>
<path d="M0 0 C3 1 3 1 5 4 C2.1875 5.5625 2.1875 5.5625 -1 7 C-1.99 6.67 -2.98 6.34 -4 6 C-2.68 5.67 -1.36 5.34 0 5 C-0.2784375 4.0409375 -0.2784375 4.0409375 -0.5625 3.0625 C-0.706875 2.381875 -0.85125 1.70125 -1 1 C-0.67 0.67 -0.34 0.34 0 0 Z " fill="#898EF6" transform="translate(490,536)"/>
<path d="M0 0 C0.99 0 1.98 0 3 0 C1.63055898 2.94956528 0.12169591 5.52468811 -2 8 C-2.66 8 -3.32 8 -4 8 C-2.25 2.25 -2.25 2.25 0 0 Z " fill="#8685F6" transform="translate(539,502)"/>
<path d="M0 0 C2.92879371 0.62759865 5.36095629 1.58622659 8 3 C8 3.66 8 4.32 8 5 C8.66 5.33 9.32 5.66 10 6 C6.68437443 5.44739574 3.84937793 4.83174295 1 3 C0.67 2.01 0.34 1.02 0 0 Z " fill="#AE81EB" transform="translate(298,402)"/>
<path d="M0 0 C0.33 0.66 0.66 1.32 1 2 C-0.89732848 6.11087838 -3.0054207 7.94872955 -7 10 C-5.33248852 6.05860922 -2.77289351 3.2107188 0 0 Z " fill="#7D59C6" transform="translate(210,537)"/>
<path d="M0 0 C0.66 0.33 1.32 0.66 2 1 C1.01 2.98 0.02 4.96 -1 7 C-1.66 7 -2.32 7 -3 7 C-3.33 6.34 -3.66 5.68 -4 5 C-4.66 4.67 -5.32 4.34 -6 4 C-4.02 2.68 -2.04 1.36 0 0 Z " fill="#9C76E3" transform="translate(251,503)"/>
<path d="M0 0 C2.34601486 2.13274079 3.86264449 4.02537789 5 7 C5.125 9.75 5.125 9.75 5 12 C1.66226291 8.35883227 1.02135098 4.71392758 0 0 Z " fill="#9B86E9" transform="translate(556,389)"/>
<path d="M0 0 C3.35661695 1.67830848 4.32506861 4.70789347 6 8 C5.67 8.66 5.34 9.32 5 10 C0.07692308 5.69230769 0.07692308 5.69230769 -0.3125 2.1875 C-0.209375 1.465625 -0.10625 0.74375 0 0 Z " fill="#CBA3F5" transform="translate(268,371)"/>
<path d="M0 0 C-1.1875 2 -1.1875 2 -3 4 C-5.6875 4.25 -5.6875 4.25 -8 4 C-8 3.34 -8 2.68 -8 2 C-4.77208445 -0.1519437 -3.71599191 -0.20086443 0 0 Z " fill="#8689F6" transform="translate(527,518)"/>
<path d="M0 0 C-0.33 1.65 -0.66 3.3 -1 5 C-3.97 4.505 -3.97 4.505 -7 4 C-3.375 0 -3.375 0 0 0 Z " fill="#7E7EE7" transform="translate(530,514)"/>
<path d="M0 0 C2.5610544 2.5610544 2.40191222 3.94185713 2.6875 7.5 C2.77386719 8.4796875 2.86023438 9.459375 2.94921875 10.46875 C3 13 3 13 2 15 C1.34 15 0.68 15 0 15 C0 10.05 0 5.1 0 0 Z " fill="#634CD8" transform="translate(502,429)"/>
<path d="M0 0 C-4.455 3.465 -4.455 3.465 -9 7 C-9.66 6.01 -10.32 5.02 -11 4 C-10.01 4 -9.02 4 -8 4 C-7.67 3.01 -7.34 2.02 -7 1 C-2.55696203 -1.27848101 -2.55696203 -1.27848101 0 0 Z " fill="#915EDA" transform="translate(342,293)"/>
<path d="M0 0 C0.99 0.33 1.98 0.66 3 1 C0.48592381 5.28324091 -1.12314139 7.64531705 -6 9 C-4.73046875 7.53515625 -3.4609375 6.0703125 -2.19140625 4.60546875 C-0.79128769 2.89287029 -0.79128769 2.89287029 0 0 Z " fill="#A876F0" transform="translate(222,524)"/>
<path d="M0 0 C0.66 0.33 1.32 0.66 2 1 C-1.32307692 5.8 -1.32307692 5.8 -4.75 6.8125 C-5.4925 6.874375 -6.235 6.93625 -7 7 C-4.66666667 4.66666667 -2.33333333 2.33333333 0 0 Z " fill="#8C68D3" transform="translate(237,512)"/>
<path d="M0 0 C0.66 0.33 1.32 0.66 2 1 C-0.475 4.465 -0.475 4.465 -3 8 C-3.33 6.68 -3.66 5.36 -4 4 C-2.0625 1.75 -2.0625 1.75 0 0 Z " fill="#5246BB" transform="translate(540,497)"/>
<path d="M0 0 C0.33 0.66 0.66 1.32 1 2 C0.00390625 3.9453125 0.00390625 3.9453125 -1.4375 6.125 C-1.91058594 6.84945313 -2.38367188 7.57390625 -2.87109375 8.3203125 C-3.24363281 8.87460937 -3.61617187 9.42890625 -4 10 C-5 7 -5 7 -4 4 C-2.70644173 2.62804426 -1.37701298 1.28817344 0 0 Z " fill="#6961C0" transform="translate(555,483)"/>
<path d="M0 0 C3.53790403 3.69172595 3.59115883 7.09390595 4 12 C3.34 12 2.68 12 2 12 C1.66269158 10.56342755 1.33030409 9.12569907 1 7.6875 C0.814375 6.88699219 0.62875 6.08648437 0.4375 5.26171875 C0 3 0 3 0 0 Z " fill="#8B7AE1" transform="translate(561,398)"/>
<path d="M0 0 C0.33 0.99 0.66 1.98 1 3 C-3.75 7.875 -3.75 7.875 -6 9 C-4.47291037 5.56404834 -2.40072955 2.88087546 0 0 Z " fill="#AF84E3" transform="translate(288,260)"/>
<path d="M0 0 C0.98247098 3.0565764 1.07716184 4.96436209 0 8 C-0.66 8.99 -1.32 9.98 -2 11 C-1.85957123 9.35369672 -1.71250671 7.70795821 -1.5625 6.0625 C-1.48128906 5.14597656 -1.40007812 4.22945313 -1.31640625 3.28515625 C-1 1 -1 1 0 0 Z " fill="#9656F0" transform="translate(279,279)"/>
<path d="M0 0 C-2.39509338 2.89932357 -4.31245243 3.50168276 -8 4 C-7.67 3.01 -7.34 2.02 -7 1 C-4.53721199 -0.231394 -2.7204945 -0.07159196 0 0 Z " fill="#B47AEF" transform="translate(330,230)"/>
<path d="M0 0 C-0.33 1.32 -0.66 2.64 -1 4 C-3.31 3.67 -5.62 3.34 -8 3 C-3.5 0 -3.5 0 0 0 Z " fill="#8288F2" transform="translate(473,543)"/>
<path d="M0 0 C-2.31 1.65 -4.62 3.3 -7 5 C-7.66 4.67 -8.32 4.34 -9 4 C-6.56225426 0.2214941 -6.56225426 0.2214941 -3.9375 -0.8125 C-2 -1 -2 -1 0 0 Z " fill="#6C6BC4" transform="translate(518,528)"/>
<path d="M0 0 C1.98 0 3.96 0 6 0 C5.67 0.99 5.34 1.98 5 3 C2.03 2.505 2.03 2.505 -1 2 C-0.67 1.34 -0.34 0.68 0 0 Z " fill="#8F86F9" transform="translate(461,478)"/>
<path d="M0 0 C0.33 0.66 0.66 1.32 1 2 C-2.465 3.485 -2.465 3.485 -6 5 C-6.66 4.34 -7.32 3.68 -8 3 C-5.36 2.01 -2.72 1.02 0 0 Z " fill="#784EE5" transform="translate(283,494)"/>
<path d="M0 0 C2.97 1.98 2.97 1.98 6 4 C4.25 4.75 4.25 4.75 2 5 C-0.25 3.0625 -0.25 3.0625 -2 1 C-1.34 0.67 -0.68 0.34 0 0 Z " fill="#B287EE" transform="translate(290,396)"/>
<path d="M0 0 C2.31 0 4.62 0 7 0 C7 0.33 7 0.66 7 1 C4.69 1 2.38 1 0 1 C0 0.67 0 0.34 0 0 Z " fill="#8D6CEC" transform="translate(442,416)"/>
<path d="M0 0 C1.98 0 3.96 0 6 0 C6 0.33 6 0.66 6 1 C4.02 1 2.04 1 0 1 C0 0.67 0 0.34 0 0 Z " fill="#9371EE" transform="translate(410,416)"/>
<path d="M0 0 C1.65 0 3.3 0 5 0 C4.34 0.66 3.68 1.32 3 2 C2.01 1.34 1.02 0.68 0 0 Z " fill="#AD83F3" transform="translate(321,414)"/>
<path d="M0 0 C1.65 0 3.3 0 5 0 C5 0.33 5 0.66 5 1 C3.35 1 1.7 1 0 1 C0 0.67 0 0.34 0 0 Z " fill="#9976F1" transform="translate(386,416)"/>
<path d="M0 0 C1.65 0 3.3 0 5 0 C5 0.33 5 0.66 5 1 C3.35 1 1.7 1 0 1 C0 0.67 0 0.34 0 0 Z " fill="#9B78F0" transform="translate(378,416)"/>
<path d="M0 0 C4 1 4 1 4 1 Z " fill="#7C77DB" transform="translate(390,555)"/>
<path d="M0 0 C4 1 4 1 4 1 Z " fill="#916FEC" transform="translate(429,416)"/>
<path d="M0 0 C4 1 4 1 4 1 Z " fill="#9672EE" transform="translate(405,416)"/>
<path d="M0 0 C0.66 0.66 1.32 1.32 2 2 C1.01 2.495 1.01 2.495 0 3 C0 2.01 0 1.02 0 0 Z " fill="#B78CF6" transform="translate(298,405)"/>
<path d="M0 0 C0 3 0 3 0 3 Z " fill="#C19FF3" transform="translate(262,366)"/>
<path d="M0 0 C4 1 4 1 4 1 Z " fill="#A470EE" transform="translate(509,280)"/>
<path d="M0 0 C3 1 3 1 3 1 Z " fill="#7E79DC" transform="translate(399,555)"/>
<path d="M0 0 C3 1 3 1 3 1 Z " fill="#796EDA" transform="translate(367,555)"/>
<path d="M0 0 C3 1 3 1 3 1 Z " fill="#7A64D8" transform="translate(327,555)"/>
<path d="M0 0 C3 1 3 1 3 1 Z " fill="#7A58D0" transform="translate(263,555)"/>
<path d="M0 0 C3 1 3 1 3 1 Z " fill="#8665E9" transform="translate(469,416)"/>
<path d="M0 0 C3 1 3 1 3 1 Z " fill="#9270ED" transform="translate(421,416)"/>
<path d="M0 0 C3 1 3 1 3 1 Z " fill="#A47CF2" transform="translate(348,416)"/>
<path d="M0 0 C0.66 0.66 1.32 1.32 2 2 C1.34 2 0.68 2 0 2 C0 1.34 0 0.68 0 0 Z " fill="#B087F4" transform="translate(316,412)"/>
<path d="M0 0 C0.66 0 1.32 0 2 0 C1.67 0.66 1.34 1.32 1 2 C0.67 1.34 0.34 0.68 0 0 Z " fill="#C3A0F3" transform="translate(260,363)"/>
<path d="M0 0 C0.99 0.495 0.99 0.495 2 1 C1.01 1.495 1.01 1.495 0 2 C0 1.34 0 0.68 0 0 Z " fill="#AE90F0" transform="translate(534,362)"/>
<path d="M0 0 C3 1 3 1 3 1 Z " fill="#AD7EEC" transform="translate(335,346)"/>
<path d="M0 0 C3 1 3 1 3 1 Z " fill="#AA78F1" transform="translate(350,289)"/>
<path d="M0 0 C3 1 3 1 3 1 Z " fill="#A471ED" transform="translate(505,281)"/>
<path d="M0 0 C2 1 2 1 2 1 Z " fill="#7F7DDE" transform="translate(409,555)"/>
<path d="M0 0 C2 1 2 1 2 1 Z " fill="#796DDA" transform="translate(358,555)"/>
<path d="M0 0 C2 1 2 1 2 1 Z " fill="#7A5ED6" transform="translate(305,555)"/>
<path d="M0 0 C2 1 2 1 2 1 Z " fill="#7A59D2" transform="translate(286,555)"/>
<path d="M0 0 C2 1 2 1 2 1 Z " fill="#7F80DE" transform="translate(458,553)"/>
<path d="" fill="#7C79D8" transform="translate(0,0)"/>
<path d="M0 0 C2 1 2 1 2 1 Z " fill="#A888F2" transform="translate(313,477)"/>
<path d="M0 0 C2 1 2 1 2 1 Z " fill="#A688F2" transform="translate(334,475)"/>
<path d="" fill="#7155DB" transform="translate(0,0)"/>
<path d="" fill="#7054D7" transform="translate(0,0)"/>
<path d="" fill="#917FEA" transform="translate(0,0)"/>
<path d="M0 0 C2 1 2 1 2 1 Z " fill="#8766EA" transform="translate(466,416)"/>
<path d="M0 0 C2 1 2 1 2 1 Z " fill="#8867E9" transform="translate(461,416)"/>
<path d="M0 0 C2 1 2 1 2 1 Z " fill="#8B69EA" transform="translate(453,416)"/>
<path d="M0 0 C2 1 2 1 2 1 Z " fill="#8C6BEC" transform="translate(450,416)"/>
<path d="M0 0 C2 1 2 1 2 1 Z " fill="#8F6EEC" transform="translate(437,416)"/>
<path d="M0 0 C2 1 2 1 2 1 Z " fill="#906FEC" transform="translate(434,416)"/>
<path d="M0 0 C2 1 2 1 2 1 Z " fill="#9270EE" transform="translate(418,416)"/>
<path d="M0 0 C2 1 2 1 2 1 Z " fill="#9673F0" transform="translate(402,416)"/>
<path d="M0 0 C2 1 2 1 2 1 Z " fill="#9875F0" transform="translate(394,416)"/>
<path d="M0 0 C2 1 2 1 2 1 Z " fill="#9F79F1" transform="translate(365,416)"/>
<path d="M0 0 C2 1 2 1 2 1 Z " fill="#A27AF1" transform="translate(357,416)"/>
<path d="M0 0 C2 1 2 1 2 1 Z " fill="#B085F3" transform="translate(319,413)"/>
<path d="" fill="#9683EC" transform="translate(0,0)"/>
<path d="" fill="#B58AF4" transform="translate(0,0)"/>
<path d="" fill="#9783ED" transform="translate(0,0)"/>
<path d="" fill="#C3A5F4" transform="translate(0,0)"/>
<path d="" fill="#B696F2" transform="translate(0,0)"/>
<path d="M0 0 C2 1 2 1 2 1 Z " fill="#BA98F6" transform="translate(506,347)"/>
<path d="" fill="#C7A1F3" transform="translate(0,0)"/>
<path d="M0 0 C2 1 2 1 2 1 Z " fill="#A270ED" transform="translate(515,279)"/>
<path d="M0 0 C2 1 2 1 2 1 Z " fill="#A270EA" transform="translate(518,278)"/>
<path d="" fill="#C092F1" transform="translate(0,0)"/>
<path d="M0 0 C2 1 2 1 2 1 Z " fill="#A16CED" transform="translate(533,272)"/>
<path d="M0 0 C2 1 2 1 2 1 Z " fill="#8F68D9" transform="translate(605,216)"/>
<path d="" fill="#8C68D0" transform="translate(0,0)"/>
<path d="M0 0 C2 1 2 1 2 1 Z " fill="#C292F5" transform="translate(375,211)"/>
<path d="" fill="#646089" transform="translate(0,0)"/>
<path d="" fill="#645D88" transform="translate(0,0)"/>
<path d="" fill="#66618F" transform="translate(0,0)"/>
<path d="" fill="#65608C" transform="translate(0,0)"/>
<path d="" fill="#625F87" transform="translate(0,0)"/>
<path d="" fill="#625F86" transform="translate(0,0)"/>
<path d="" fill="#66628D" transform="translate(0,0)"/>
<path d="" fill="#66608D" transform="translate(0,0)"/>
<path d="" fill="#615B83" transform="translate(0,0)"/>
<path d="" fill="#676191" transform="translate(0,0)"/>
<path d="" fill="#67638F" transform="translate(0,0)"/>
<path d="" fill="#686492" transform="translate(0,0)"/>
<path d="" fill="#665F8D" transform="translate(0,0)"/>
<path d="" fill="#605E81" transform="translate(0,0)"/>
<path d="" fill="#63628A" transform="translate(0,0)"/>
<path d="" fill="#5D5A7F" transform="translate(0,0)"/>
<path d="" fill="#5D577C" transform="translate(0,0)"/>
<path d="" fill="#686494" transform="translate(0,0)"/>
<path d="" fill="#5E5C81" transform="translate(0,0)"/>
<path d="" fill="#686492" transform="translate(0,0)"/>
<path d="" fill="#6A6492" transform="translate(0,0)"/>
<path d="" fill="#67608E" transform="translate(0,0)"/>
<path d="" fill="#66628D" transform="translate(0,0)"/>
<path d="" fill="#685F8E" transform="translate(0,0)"/>
<path d="" fill="#686490" transform="translate(0,0)"/>
<path d="" fill="#696593" transform="translate(0,0)"/>
<path d="" fill="#686490" transform="translate(0,0)"/>
<path d="" fill="#6A6792" transform="translate(0,0)"/>
<path d="" fill="#676193" transform="translate(0,0)"/>
<path d="" fill="#696092" transform="translate(0,0)"/>
<path d="" fill="#6B6792" transform="translate(0,0)"/>
<path d="" fill="#696591" transform="translate(0,0)"/>
<path d="" fill="#6B6598" transform="translate(0,0)"/>
<path d="" fill="#6D679A" transform="translate(0,0)"/>
<path d="" fill="#6C679C" transform="translate(0,0)"/>
<path d="" fill="#6D689C" transform="translate(0,0)"/>
<path d="" fill="#6C699D" transform="translate(0,0)"/>
<path d="" fill="#6B6895" transform="translate(0,0)"/>
<path d="" fill="#656088" transform="translate(0,0)"/>
<path d="" fill="#6B6790" transform="translate(0,0)"/>
<path d="" fill="#6A6591" transform="translate(0,0)"/>
<path d="" fill="#6D6B9D" transform="translate(0,0)"/>
<path d="" fill="#605D81" transform="translate(0,0)"/>
<path d="" fill="#706B9C" transform="translate(0,0)"/>
<path d="" fill="#6E6999" transform="translate(0,0)"/>
<path d="" fill="#6E65A1" transform="translate(0,0)"/>
<path d="" fill="#716CA7" transform="translate(0,0)"/>
<path d="" fill="#665F87" transform="translate(0,0)"/>
<path d="" fill="#726FA8" transform="translate(0,0)"/>
<path d="" fill="#726EA6" transform="translate(0,0)"/>
<path d="" fill="#605D80" transform="translate(0,0)"/>
<path d="" fill="#7167A9" transform="translate(0,0)"/>
<path d="" fill="#716CAE" transform="translate(0,0)"/>
<path d="" fill="#68608C" transform="translate(0,0)"/>
<path d="" fill="#6E6B9A" transform="translate(0,0)"/>
<path d="" fill="#716EB3" transform="translate(0,0)"/>
<path d="" fill="#6F649D" transform="translate(0,0)"/>
<path d="" fill="#605D83" transform="translate(0,0)"/>
<path d="" fill="#7162AA" transform="translate(0,0)"/>
<path d="" fill="#7875B6" transform="translate(0,0)"/>
<path d="" fill="#7977BF" transform="translate(0,0)"/>
<path d="" fill="#8180DC" transform="translate(0,0)"/>
<path d="" fill="#7F81DB" transform="translate(0,0)"/>
<path d="" fill="#807FDC" transform="translate(0,0)"/>
<path d="" fill="#817FDB" transform="translate(0,0)"/>
<path d="" fill="#8280E2" transform="translate(0,0)"/>
<path d="" fill="#8180DF" transform="translate(0,0)"/>
<path d="" fill="#807DDF" transform="translate(0,0)"/>
<path d="" fill="#7F7CDC" transform="translate(0,0)"/>
<path d="" fill="#7A77DB" transform="translate(0,0)"/>
<path d="" fill="#7B76DC" transform="translate(0,0)"/>
<path d="" fill="#7B72DB" transform="translate(0,0)"/>
<path d="" fill="#7B5FD5" transform="translate(0,0)"/>
<path d="" fill="#7A5FD6" transform="translate(0,0)"/>
<path d="" fill="#7A5ED4" transform="translate(0,0)"/>
<path d="" fill="#7A5CD4" transform="translate(0,0)"/>
<path d="" fill="#7A5DD4" transform="translate(0,0)"/>
<path d="" fill="#7A58D2" transform="translate(0,0)"/>
<path d="" fill="#7A58D1" transform="translate(0,0)"/>
<path d="" fill="#7B58D1" transform="translate(0,0)"/>
<path d="" fill="#7957CF" transform="translate(0,0)"/>
<path d="" fill="#7958CD" transform="translate(0,0)"/>
<path d="" fill="#7A57CF" transform="translate(0,0)"/>
<path d="" fill="#7E80DB" transform="translate(0,0)"/>
<path d="" fill="#817DDD" transform="translate(0,0)"/>
<path d="" fill="#7D5AC9" transform="translate(0,0)"/>
<path d="" fill="#716F9E" transform="translate(0,0)"/>
<path d="" fill="#7F7CD9" transform="translate(0,0)"/>
<path d="" fill="#7D7FDA" transform="translate(0,0)"/>
<path d="" fill="#817ED9" transform="translate(0,0)"/>
<path d="" fill="#7E7ADA" transform="translate(0,0)"/>
<path d="" fill="#7975D6" transform="translate(0,0)"/>
<path d="" fill="#7D75D3" transform="translate(0,0)"/>
<path d="" fill="#8760DB" transform="translate(0,0)"/>
<path d="" fill="#67648B" transform="translate(0,0)"/>
<path d="" fill="#7773A7" transform="translate(0,0)"/>
<path d="" fill="#716F9E" transform="translate(0,0)"/>
<path d="" fill="#7E6CB0" transform="translate(0,0)"/>
<path d="" fill="#956DE2" transform="translate(0,0)"/>
<path d="" fill="#6A668F" transform="translate(0,0)"/>
<path d="" fill="#916BE0" transform="translate(0,0)"/>
<path d="" fill="#9872E8" transform="translate(0,0)"/>
<path d="" fill="#A17AE8" transform="translate(0,0)"/>
<path d="" fill="#A682F0" transform="translate(0,0)"/>
<path d="" fill="#A784ED" transform="translate(0,0)"/>
<path d="" fill="#8471B5" transform="translate(0,0)"/>
<path d="" fill="#A989F0" transform="translate(0,0)"/>
<path d="" fill="#AA89F0" transform="translate(0,0)"/>
<path d="" fill="#AB89F3" transform="translate(0,0)"/>
<path d="" fill="#9B8FF1" transform="translate(0,0)"/>
<path d="" fill="#9D8DF1" transform="translate(0,0)"/>
<path d="" fill="#A587F2" transform="translate(0,0)"/>
<path d="" fill="#A786F3" transform="translate(0,0)"/>
<path d="" fill="#8A7EE5" transform="translate(0,0)"/>
<path d="" fill="#8C80E9" transform="translate(0,0)"/>
<path d="" fill="#7968D9" transform="translate(0,0)"/>
<path d="" fill="#8274DF" transform="translate(0,0)"/>
<path d="" fill="#8376DD" transform="translate(0,0)"/>
<path d="" fill="#7B65E0" transform="translate(0,0)"/>
<path d="" fill="#7E67E0" transform="translate(0,0)"/>
<path d="" fill="#7B65DE" transform="translate(0,0)"/>
<path d="" fill="#7960DC" transform="translate(0,0)"/>
<path d="" fill="#7662DB" transform="translate(0,0)"/>
<path d="" fill="#8377E1" transform="translate(0,0)"/>
<path d="" fill="#8277E4" transform="translate(0,0)"/>
<path d="" fill="#7057D7" transform="translate(0,0)"/>
<path d="" fill="#7571A0" transform="translate(0,0)"/>
<path d="" fill="#7158DC" transform="translate(0,0)"/>
<path d="" fill="#706A96" transform="translate(0,0)"/>
<path d="" fill="#7756DE" transform="translate(0,0)"/>
<path d="" fill="#8F7EEB" transform="translate(0,0)"/>
<path d="" fill="#795BE0" transform="translate(0,0)"/>
<path d="" fill="#775BDF" transform="translate(0,0)"/>
<path d="" fill="#835FEA" transform="translate(0,0)"/>
<path d="" fill="#A07BF3" transform="translate(0,0)"/>
<path d="" fill="#AC83F3" transform="translate(0,0)"/>
<path d="" fill="#8563EA" transform="translate(0,0)"/>
<path d="" fill="#8664E9" transform="translate(0,0)"/>
<path d="" fill="#8F6EEA" transform="translate(0,0)"/>
<path d="" fill="#9170EE" transform="translate(0,0)"/>
<path d="" fill="#9874EE" transform="translate(0,0)"/>
<path d="" fill="#9875EF" transform="translate(0,0)"/>
<path d="" fill="#9B77EF" transform="translate(0,0)"/>
<path d="" fill="#9E79F1" transform="translate(0,0)"/>
<path d="" fill="#A07AF1" transform="translate(0,0)"/>
<path d="" fill="#9E7AEF" transform="translate(0,0)"/>
<path d="" fill="#A47CF3" transform="translate(0,0)"/>
<path d="" fill="#A37DF1" transform="translate(0,0)"/>
<path d="" fill="#A67EF3" transform="translate(0,0)"/>
<path d="" fill="#A97EF2" transform="translate(0,0)"/>
<path d="" fill="#AE84F5" transform="translate(0,0)"/>
<path d="" fill="#9281EB" transform="translate(0,0)"/>
<path d="" fill="#AB83F2" transform="translate(0,0)"/>
<path d="" fill="#9582EB" transform="translate(0,0)"/>
<path d="" fill="#B286F5" transform="translate(0,0)"/>
<path d="" fill="#B78BF6" transform="translate(0,0)"/>
<path d="" fill="#9B84EE" transform="translate(0,0)"/>
<path d="" fill="#C097F5" transform="translate(0,0)"/>
<path d="" fill="#BF97F5" transform="translate(0,0)"/>
<path d="" fill="#9D87ED" transform="translate(0,0)"/>
<path d="" fill="#9C85EC" transform="translate(0,0)"/>
<path d="" fill="#9E88EF" transform="translate(0,0)"/>
<path d="" fill="#C19AF3" transform="translate(0,0)"/>
<path d="" fill="#C19DF4" transform="translate(0,0)"/>
<path d="" fill="#C09DF2" transform="translate(0,0)"/>
<path d="" fill="#C09CF2" transform="translate(0,0)"/>
<path d="" fill="#A68DF0" transform="translate(0,0)"/>
<path d="" fill="#C1A0F5" transform="translate(0,0)"/>
<path d="" fill="#AD8FF3" transform="translate(0,0)"/>
<path d="" fill="#AD90F1" transform="translate(0,0)"/>
<path d="" fill="#C39EF2" transform="translate(0,0)"/>
<path d="" fill="#716C98" transform="translate(0,0)"/>
<path d="" fill="#C4A1F5" transform="translate(0,0)"/>
<path d="" fill="#B494F2" transform="translate(0,0)"/>
<path d="" fill="#6D6994" transform="translate(0,0)"/>
<path d="" fill="#B494F2" transform="translate(0,0)"/>
<path d="" fill="#B392EE" transform="translate(0,0)"/>
<path d="" fill="#B697F4" transform="translate(0,0)"/>
<path d="" fill="#BA99F5" transform="translate(0,0)"/>
<path d="" fill="#BC9CF5" transform="translate(0,0)"/>
<path d="" fill="#B998F5" transform="translate(0,0)"/>
<path d="" fill="#BC98F6" transform="translate(0,0)"/>
<path d="" fill="#BE97F7" transform="translate(0,0)"/>
<path d="" fill="#A874EF" transform="translate(0,0)"/>
<path d="" fill="#6D668F" transform="translate(0,0)"/>
<path d="" fill="#AE8CE9" transform="translate(0,0)"/>
<path d="" fill="#9B7FD7" transform="translate(0,0)"/>
<path d="" fill="#9F6BEB" transform="translate(0,0)"/>
<path d="" fill="#7A729D" transform="translate(0,0)"/>
<path d="" fill="#A37FE0" transform="translate(0,0)"/>
<path d="" fill="#A16AEC" transform="translate(0,0)"/>
<path d="" fill="#C19EF0" transform="translate(0,0)"/>
<path d="" fill="#C39EF1" transform="translate(0,0)"/>
<path d="" fill="#C49DF1" transform="translate(0,0)"/>
<path d="" fill="#A873EF" transform="translate(0,0)"/>
<path d="" fill="#A970F1" transform="translate(0,0)"/>
<path d="" fill="#A973F4" transform="translate(0,0)"/>
<path d="" fill="#AC74F1" transform="translate(0,0)"/>
<path d="" fill="#C49CF3" transform="translate(0,0)"/>
<path d="" fill="#9877D7" transform="translate(0,0)"/>
<path d="" fill="#AD76F4" transform="translate(0,0)"/>
<path d="" fill="#AD78F6" transform="translate(0,0)"/>
<path d="" fill="#AD77F3" transform="translate(0,0)"/>
<path d="" fill="#AF79F3" transform="translate(0,0)"/>
<path d="" fill="#B079F4" transform="translate(0,0)"/>
<path d="" fill="#AB79EE" transform="translate(0,0)"/>
<path d="" fill="#B57FF6" transform="translate(0,0)"/>
<path d="" fill="#C099F2" transform="translate(0,0)"/>
<path d="" fill="#A672EB" transform="translate(0,0)"/>
<path d="" fill="#A470EB" transform="translate(0,0)"/>
<path d="" fill="#A06FE9" transform="translate(0,0)"/>
<path d="" fill="#9D6DE8" transform="translate(0,0)"/>
<path d="" fill="#A06DF0" transform="translate(0,0)"/>
<path d="" fill="#706998" transform="translate(0,0)"/>
<path d="" fill="#68638D" transform="translate(0,0)"/>
<path d="" fill="#BA8DF4" transform="translate(0,0)"/>
<path d="" fill="#BA8DF0" transform="translate(0,0)"/>
<path d="" fill="#BB8DF0" transform="translate(0,0)"/>
<path d="" fill="#BB8BF3" transform="translate(0,0)"/>
<path d="" fill="#7B70A7" transform="translate(0,0)"/>
<path d="" fill="#9A6BE9" transform="translate(0,0)"/>
<path d="" fill="#B787F0" transform="translate(0,0)"/>
<path d="" fill="#B787F1" transform="translate(0,0)"/>
<path d="" fill="#9968E3" transform="translate(0,0)"/>
<path d="" fill="#B784F4" transform="translate(0,0)"/>
<path d="" fill="#B67FF5" transform="translate(0,0)"/>
<path d="" fill="#9A68E6" transform="translate(0,0)"/>
<path d="" fill="#9866E4" transform="translate(0,0)"/>
<path d="" fill="#B57EF2" transform="translate(0,0)"/>
<path d="" fill="#B77FF3" transform="translate(0,0)"/>
<path d="" fill="#706696" transform="translate(0,0)"/>
<path d="" fill="#6D6794" transform="translate(0,0)"/>
<path d="" fill="#726898" transform="translate(0,0)"/>
<path d="" fill="#B581EF" transform="translate(0,0)"/>
<path d="" fill="#BE83F1" transform="translate(0,0)"/>
<path d="" fill="#BD87F6" transform="translate(0,0)"/>
<path d="" fill="#8A7AAF" transform="translate(0,0)"/>
<path d="" fill="#9161DF" transform="translate(0,0)"/>
<path d="" fill="#BF89F6" transform="translate(0,0)"/>
<path d="" fill="#C18EF3" transform="translate(0,0)"/>
<path d="" fill="#9167DB" transform="translate(0,0)"/>
<path d="" fill="#8F69D4" transform="translate(0,0)"/>
<path d="" fill="#C48FF6" transform="translate(0,0)"/>
<path d="" fill="#8D66D4" transform="translate(0,0)"/>
<path d="" fill="#C28FF2" transform="translate(0,0)"/>
<path d="" fill="#C28DF6" transform="translate(0,0)"/>
<path d="" fill="#7D719F" transform="translate(0,0)"/>
<path d="" fill="#716796" transform="translate(0,0)"/>
<path d="" fill="#716797" transform="translate(0,0)"/>
<path d="" fill="#8374A5" transform="translate(0,0)"/>
<path d="" fill="#686285" transform="translate(0,0)"/>
<path d="" fill="#635D84" transform="translate(0,0)"/>
<path d="" fill="#8B78B2" transform="translate(0,0)"/>
<path d="" fill="#6D648B" transform="translate(0,0)"/>
<path d="" fill="#5D577B" transform="translate(0,0)"/>
<path d="" fill="#5D577B" transform="translate(0,0)"/>
<path d="" fill="#7D70A2" transform="translate(0,0)"/>
<path d="" fill="#6A638D" transform="translate(0,0)"/>
<path d="" fill="#625B82" transform="translate(0,0)"/>
<path d="" fill="#766C9A" transform="translate(0,0)"/>
<path d="" fill="#7A6E9B" transform="translate(0,0)"/>
<path d="" fill="#716992" transform="translate(0,0)"/>
<path d="" fill="#786D98" transform="translate(0,0)"/>
<path d="" fill="#5E577B" transform="translate(0,0)"/>
<path d="" fill="#5A5578" transform="translate(0,0)"/>
<path d="" fill="#686287" transform="translate(0,0)"/>
<path d="" fill="#585475" transform="translate(0,0)"/>
<path d="" fill="#5A5778" transform="translate(0,0)"/>
</svg>
